<svg xmlns="http://www.w3.org/2000/svg" xmlns:xlink="http://www.w3.org/1999/xlink" xmlns:inkscape="http://www.inkscape.org/namespaces/inkscape" version="1.1" width="432.7514" height="147.2753" viewBox="378.9423 13.0642 432.7514 147.2753">
<defs>
<clipPath id="clip_0">

</clipPath>
<clipPath id="clip_1">

</clipPath>
<clipPath id="clip_2">

</clipPath>
<clipPath id="clip_3">

</clipPath>
</defs>






































<g clip-path="url(#clip_0)">

</g>



<g clip-path="url(#clip_1)">

</g>













































<path transform="matrix(.1,0,0,-.1,0,1683.78)" d="M4049.15 15627.5C4022.21 15627.5 3949.35 15628.7 3923.02 15628.7 3895.46 15628.7 3829.2 15627.5 3802.26 15627.5V15633.6H3873.42V16045.1H3808.52V16051.2C3835.46 16051.2 3896.69 16050 3923.63 16050 3949.96 16050 4024.05 16051.2 4050.37 16051.2H4079.77C4208.96 16051.2 4335.7 16025.5 4335.7 15937.3 4335.7 15832.6 4208.96 15817.9 4079.77 15817.9H3984.25V15633.6H4049.15ZM4063.23 15824C4174.06 15824 4218.14 15862 4218.14 15937.3 4218.14 16012 4175.89 16045.1 4063.85 16045.1H3984.25V15824" fill="#fff" class="mkkdsak4732"></path>
<path transform="matrix(.1,0,0,-.1,0,1683.78)" d="M4845.08 15590.8C4848.76 15626.3 4759.97 15627.5 4674.86 15627.5H4575.06C4548.12 15627.5 4520.56 15628.7 4494.24 15628.7 4467.3 15628.7 4400.56 15628.1 4373.61 15627.5V15633.6H4438.52V16045.1H4373.61V16051.2C4399.94 16051.2 4467.3 16050 4494.24 16050 4520.56 16050 4547.51 16051.2 4574.45 16051.2H4652.21C4737.32 16051.2 4826.71 16051.8 4823.65 16087.9H4829.77L4844.47 15930.6H4838.35C4829.16 16014.5 4784.46 16045.1 4658.33 16045.1H4549.34V15851H4625.27C4698.74 15851 4744.66 15868.1 4744.66 15936.1H4750.17V15759.7H4744.66C4744.66 15827.7 4698.74 15844.9 4625.27 15844.9H4549.34V15633.6H4688.95C4799.16 15633.6 4844.47 15665.5 4850.59 15747.5H4857.33L4851.2 15590.8" fill="#fff" class="mkkdsak4732"></path>
<path transform="matrix(.1,0,0,-.1,0,1683.78)" d="M5412.19 15688.7C5361.98 15648.3 5282.99 15621.4 5221.77 15621.4 5074.81 15621.4 4911.94 15689.3 4911.94 15839.4 4911.94 15988.1 5057.67 16056.7 5221.15 16056.7 5262.18 16056.7 5347.9 16039.6 5381.57 15997.3 5389.53 15986.3 5395.04 15974.1 5395.04 15960 5395.04 15928.7 5368.71 15903 5336.26 15903 5305.65 15903 5279.32 15928.7 5279.32 15960 5279.32 15996.1 5313 16019.4 5349.13 16017.5 5317.9 16037.1 5260.95 16051.2 5221.15 16051.2 5090.73 16051.2 5035.02 15958.1 5035.02 15839.4 5035.02 15698.5 5123.8 15628.1 5226.05 15628.1 5292.18 15628.1 5360.14 15653.2 5408.52 15691.8" fill="#fff" class="mkkdsak4732"></path>
<path transform="matrix(.1,0,0,-.1,0,1683.78)" d="M5745.84 15621.4C5558.48 15621.4 5456.23 15715.7 5456.23 15841.2 5456.23 15964.9 5556.03 16056.7 5745.84 16056.7 5935.65 16056.7 6035.46 15964.9 6035.46 15841.2 6035.46 15715.7 5933.82 15621.4 5745.84 15621.4M5913 15835.7C5913 15956.3 5857.28 16051.2 5745.84 16051.2 5634.4 16051.2 5578.69 15968.5 5578.69 15847.3 5578.69 15724.9 5635.63 15627.5 5745.84 15627.5 5856.05 15627.5 5913 15713.2 5913 15835.7" fill="#fff" class="mkkdsak4732"></path>
<path transform="matrix(.1,0,0,-.1,0,1683.78)" d="M6302.19 15817.9H6236.67V15633.6H6301.58V15627.5C6274.64 15627.5 6201.77 15628.7 6175.44 15628.7 6147.89 15628.7 6087.89 15627.5 6060.95 15627.5V15633.6H6125.85V16045.1H6060.95V16051.2C6087.89 16051.2 6149.12 16050 6176.06 16050 6202.39 16050 6276.47 16051.2 6302.8 16051.2H6392.81C6491.39 16051.2 6588.13 16025.5 6588.13 15937.3 6588.13 15839.4 6507.92 15818.5 6420.98 15817.9L6443.02 15779.3C6469.96 15731.6 6528.13 15635.5 6588.74 15635.5 6606.5 15635.5 6624.86 15643.4 6643.23 15661.8L6647.52 15658.7C6624.26 15631.8 6580.17 15621.4 6544.04 15621.4 6438.12 15621.4 6398.93 15641.6 6343.82 15742.6ZM6338.93 15824C6424.65 15824 6470.57 15862 6470.57 15937.3 6470.57 16012 6426.48 16045.1 6339.54 16045.1H6236.67V15824" fill="#fff" class="mkkdsak4732"></path>
<path transform="matrix(.1,0,0,-.1,0,1683.78)" d="M6914.04 15627.5C6887.1 15627.5 6817.3 15628.7 6790.97 15628.7 6763.42 15628.7 6700.35 15627.5 6673.41 15627.5V15633.6H6738.31V16045.1H6673.41V16051.2C6700.35 16051.2 6763.42 16050 6790.97 16050 6817.3 16050 6887.1 16051.2 6914.04 16051.2V16045.1H6849.13V15633.6H6914.04" fill="#fff" class="mkkdsak4732"></path>
<path transform="matrix(.1,0,0,-.1,0,1683.78)" d="M7022.83 15928.1V15633.6H7087.12V15627.5C7064.46 15627.5 7041.81 15628.7 7019.76 15628.7 6997.11 15628.7 6974.45 15627.5 6952.42 15627.5V15633.6H7016.71V16051.2L7430 15738.3V16045.1H7365.71V16051.2H7500.41V16045.1H7436.12V15621.4" fill="#fff" class="mkkdsak4732"></path>
<path transform="matrix(.1,0,0,-.1,0,1683.78)" d="M7813.64 15621.4C7626.28 15621.4 7524.02 15715.7 7524.02 15841.2 7524.02 15964.9 7623.83 16056.7 7813.64 16056.7 8003.45 16056.7 8103.25 15964.9 8103.25 15841.2 8103.25 15715.7 8001.61 15621.4 7813.64 15621.4M7980.8 15835.7C7980.8 15956.3 7925.08 16051.2 7813.64 16051.2 7702.2 16051.2 7646.48 15968.5 7646.48 15847.3 7646.48 15724.9 7703.42 15627.5 7813.64 15627.5 7923.85 15627.5 7980.8 15713.2 7980.8 15835.7" fill="#fff" class="mkkdsak4732"></path>
<path transform="matrix(.1,0,0,-.1,0,1683.78)" d="M5053.16 15422.6H5108.34C5138.68 15422.6 5153.02 15404.6 5153.02 15382.7 5153.02 15366.7 5145.85 15355 5132 15350.4 5153.02 15345.4 5165.44 15329.4 5165.44 15307.9 5165.44 15280.9 5148.72 15260.1 5114.08 15260.1H5053.16ZM5109.54 15356.1C5128.41 15356.1 5135.82 15366.9 5135.82 15381.7 5135.82 15396.5 5127.93 15407.3 5107.15 15407.3H5070.36V15356.1ZM5112.88 15275.4C5137.73 15275.4 5148 15289.5 5148 15308.4 5148 15327.5 5136.77 15341.3 5111.93 15341.3H5070.36V15275.4" fill="#fff" class="mkkdsak4732"></path>
<path transform="matrix(.1,0,0,-.1,0,1683.78)" d="M5251.44 15424.2H5254.31L5323.11 15260.1H5304.95L5293.96 15287.3H5211.78L5201.03 15260.1H5184.07ZM5287.75 15302.1 5259.09 15374.3C5255.98 15381.9 5252.87 15393.6 5252.87 15393.6 5252.87 15393.6 5249.53 15381.9 5246.42 15374.3L5217.76 15302.1" fill="#fff" class="mkkdsak4732"></path>
<path transform="matrix(.1,0,0,-.1,0,1683.78)" d="M5459.51 15260.1H5439.2L5407.91 15304.5C5402.42 15303.6 5396.44 15303.1 5390.71 15303.1H5371.36V15260.1H5354.16V15422.6H5390.71C5435.14 15422.6 5458.08 15397.7 5458.08 15362.6 5458.08 15338.2 5446.61 15319.1 5424.15 15310ZM5389.75 15318.2C5426.54 15318.2 5440.16 15337 5440.16 15362.6 5440.16 15388.1 5426.3 15407.3 5389.75 15407.3H5371.36V15318.2" fill="#fff" class="mkkdsak4732"></path>
<path transform="matrix(.1,0,0,-.1,0,1683.78)" d="M5642.26 15308.6C5646.8 15319.6 5649.19 15332.7 5649.19 15348H5665.67C5665.67 15327 5661.13 15309.3 5653.48 15295L5682.16 15260.1H5661.37L5643.93 15281.1C5630.79 15266.3 5612.88 15258.2 5592.8 15258.2 5561.28 15258.2 5541.21 15275.6 5541.21 15302.4 5541.21 15329.4 5559.37 15342 5583.02 15355L5580.14 15358.5C5571.3 15369.5 5567.01 15380.3 5567.01 15391 5567.01 15409.9 5580.63 15424.5 5601.89 15424.5 5622.67 15424.5 5636.29 15410.1 5636.29 15391.3 5636.29 15374.8 5624.57 15362.6 5606.43 15352.1ZM5591.62 15344.4C5572.27 15333.9 5559.13 15323.4 5559.13 15303.3 5559.13 15284.7 5571.55 15273.5 5592.8 15273.5 5609.29 15273.5 5623.63 15280.4 5633.66 15293.6ZM5620.52 15391.3C5620.52 15402.7 5612.88 15410.1 5602.13 15410.1 5590.89 15410.1 5583.48 15403 5583.48 15391.3 5583.48 15382.7 5587.07 15375.5 5593.05 15368.3L5597.59 15362.8C5611.44 15371 5620.52 15379.3 5620.52 15391.3" fill="#fff" class="mkkdsak4732"></path>
<path transform="matrix(.1,0,0,-.1,0,1683.78)" d="M5801.59 15407.3H5751.66V15422.6H5868.72V15407.3H5818.79V15260.1H5801.59" fill="#fff" class="mkkdsak4732"></path>
<path transform="matrix(.1,0,0,-.1,0,1683.78)" d="M6004.17 15260.1H5983.87L5952.57 15304.5C5947.08 15303.6 5941.11 15303.1 5935.37 15303.1H5916.02V15260.1H5898.82V15422.6H5935.37C5979.8 15422.6 6002.73 15397.7 6002.73 15362.6 6002.73 15338.2 5991.27 15319.1 5968.82 15310ZM5934.41 15318.2C5971.21 15318.2 5984.82 15337 5984.82 15362.6 5984.82 15388.1 5970.96 15407.3 5934.41 15407.3H5916.02V15318.2" fill="#fff" class="mkkdsak4732"></path>
<path transform="matrix(.1,0,0,-.1,0,1683.78)" d="M6092.79 15424.2H6095.66L6164.46 15260.1H6146.3L6135.31 15287.3H6053.13L6042.38 15260.1H6025.43ZM6129.11 15302.1 6100.43 15374.3C6097.34 15381.9 6094.22 15393.6 6094.22 15393.6 6094.22 15393.6 6090.88 15381.9 6087.77 15374.3L6059.11 15302.1" fill="#fff" class="mkkdsak4732"></path>
<path transform="matrix(.1,0,0,-.1,0,1683.78)" d="M6212 15407.3H6162.07V15422.6H6279.13V15407.3H6229.2V15260.1H6212" fill="#fff" class="mkkdsak4732"></path>
<path transform="matrix(.1,0,0,-.1,0,1683.78)" d="M6346.01 15407.3H6296.08V15422.6H6413.14V15407.3H6363.21V15260.1H6346.01" fill="#fff" class="mkkdsak4732"></path>
<path transform="matrix(.1,0,0,-.1,0,1683.78)" d="M6424.37 15341.3C6424.37 15390.3 6461.64 15424.5 6507.73 15424.5 6554.09 15424.5 6591.34 15390.3 6591.34 15341.3 6591.34 15292.4 6554.09 15258.2 6507.73 15258.2 6461.64 15258.2 6424.37 15292.4 6424.37 15341.3M6573.43 15341.3C6573.43 15380 6545.71 15408.9 6507.73 15408.9 6470 15408.9 6442.29 15380 6442.29 15341.3 6442.29 15302.6 6470 15273.7 6507.73 15273.7 6545.71 15273.7 6573.43 15302.6 6573.43 15341.3" fill="#fff" class="mkkdsak4732"></path>
<path transform="matrix(.1,0,0,-.1,0,1683.78)" d="M6731.81 15260.1H6711.51L6680.21 15304.5C6674.72 15303.6 6668.75 15303.1 6663.01 15303.1H6643.66V15260.1H6626.46V15422.6H6663.01C6707.44 15422.6 6730.38 15397.7 6730.38 15362.6 6730.38 15338.2 6718.91 15319.1 6696.46 15310ZM6662.05 15318.2C6698.84 15318.2 6712.46 15337 6712.46 15362.6 6712.46 15388.1 6698.61 15407.3 6662.05 15407.3H6643.66V15318.2" fill="#fff" class="mkkdsak4732"></path>
<path transform="matrix(.1,0,0,-.1,0,1683.78)" d="M6769.55 15260.1H6786.991V15422.549H6769.55Z" fill="#fff" class="mkkdsak4732"></path>
<path transform="matrix(.1,0,0,-.1,0,1683.78)" d="M6886.13 15424.2H6889L6957.8 15260.1H6939.64L6928.65 15287.3H6846.47L6835.72 15260.1H6818.76ZM6922.44 15302.1 6893.77 15374.3C6890.67 15381.9 6887.56 15393.6 6887.56 15393.6 6887.56 15393.6 6884.22 15381.9 6881.11 15374.3L6852.44 15302.1" fill="#fff" class="mkkdsak4732"></path>
<path transform="matrix(.1,0,0,-.1,0,1683.78)" d="M5752.01 16463.9C5751.57 16463.9 5751.47 16464.4 5751.89 16464.5 5756.66 16465.9 5761.07 16468.3 5765.27 16470.9 5769.47 16473.6 5773.44 16476.5 5777.18 16479.7 5779.68 16481.8 5782.87 16478.1 5779.96 16476 5775.69 16473.1 5771.19 16470.6 5766.52 16468.6 5761.85 16466.6 5757.03 16464.8 5752.01 16463.9" fill="#fff" class="mkkdsak4732"></path>
<path transform="matrix(.1,0,0,-.1,0,1683.78)" d="M5768.11 16449.7C5760.92 16445.6 5752.54 16444.4 5744.82 16445.4 5744.47 16445.4 5744.51 16446 5744.85 16446 5752.56 16446.2 5759.85 16449.2 5765.6 16453.6 5767.49 16455.1 5770.59 16451.2 5768.11 16449.7" fill="#fff" class="mkkdsak4732"></path>
<path transform="matrix(.1,0,0,-.1,0,1683.78)" d="M5775.28 16500.3C5775.01 16500.2 5774.73 16500.6 5775.01 16500.8 5776.58 16501.8 5778.39 16502.3 5780 16502.9 5781.62 16503.5 5783.19 16504.2 5784.68 16505.1 5787.66 16506.8 5790.36 16508.9 5792.72 16511.2 5794.26 16512.8 5797.78 16509.3 5795.68 16507.7 5792.64 16505.4 5789.24 16503.8 5785.74 16502.6 5783.99 16502.1 5782.2 16501.7 5780.41 16501.4 5778.61 16501 5776.88 16500.9 5775.28 16500.3" fill="#fff" class="mkkdsak4732"></path>
<path transform="matrix(.1,0,0,-.1,0,1683.78)" d="M5833.91 16582.7C5832.11 16580.6 5829.8 16579 5827.3 16578 5826.74 16577.7 5826.28 16577.5 5826 16577.4 5825.71 16577.2 5825.71 16577.1 5825.7 16577.1 5825.69 16577.1 5825.64 16577 5825.74 16576.7 5825.84 16576.3 5826.05 16575.9 5826.3 16575.4 5826.57 16574.9 5826.92 16574.2 5827.18 16573.6 5827.45 16573 5827.67 16572.3 5827.85 16571.7 5828.21 16570.4 5828.41 16569 5828.45 16567.7 5828.52 16565 5827.94 16562.2 5826.71 16559.8 5824.26 16555 5819.36 16551.7 5814.16 16551.2 5812.64 16551.1 5812.65 16552.3 5813.98 16552.5 5818.71 16553.3 5822.87 16556.6 5824.61 16560.9 5826.36 16565.1 5825.8 16570.1 5823.32 16573.7 5823 16574.3 5822.65 16574.8 5822.38 16575.6 5822.11 16576.3 5821.93 16577.3 5822.24 16578.3 5822.53 16579.3 5823.29 16580.1 5823.95 16580.5 5824.62 16581 5825.24 16581.2 5825.77 16581.5 5827.71 16582.4 5829.39 16583.8 5830.68 16585.4 5831.93 16587.1 5832.78 16589 5832.96 16590.9 5833.17 16592.8 5832.8 16594.8 5831.89 16596.5 5831.46 16597.3 5831.25 16598 5831.21 16598.6 5831.18 16599.2 5831.34 16599.8 5831.71 16600.3 5832.07 16600.7 5832.66 16600.9 5833.44 16600.7 5834.19 16600.5 5835.12 16599.9 5835.8 16598.6 5837.21 16596.1 5837.71 16593.2 5837.36 16590.3 5837.01 16587.5 5835.69 16584.8 5833.91 16582.7" fill="#fff" class="mkkdsak4732"></path>
<path transform="matrix(.1,0,0,-.1,0,1683.78)" d="M5736.13 16485.7C5742.16 16486.6 5747.79 16488.9 5752.82 16491.8 5754.5 16492.8 5756.83 16488.4 5754.74 16487.6 5748.72 16485.4 5742.29 16484.8 5736.16 16485.1 5735.89 16485.1 5735.87 16485.7 5736.13 16485.7" fill="#fff" class="mkkdsak4732"></path>
<path transform="matrix(.1,0,0,-.1,0,1683.78)" d="M5764.52 16506.4C5758.1 16504.5 5751.34 16504.3 5745.01 16505.3 5744.73 16505.3 5744.76 16505.8 5745.04 16505.9 5751.39 16506.2 5757.45 16508.1 5762.88 16510.7 5764.69 16511.6 5766.75 16507.1 5764.52 16506.4" fill="#fff" class="mkkdsak4732"></path>
<path transform="matrix(.1,0,0,-.1,0,1683.78)" d="M5787.38 16526.9C5785.49 16525.2 5783.21 16524.1 5780.83 16523.7 5779.64 16523.5 5778.43 16523.4 5777.23 16523.5 5776.61 16523.6 5776.1 16523.7 5775.76 16523.7 5775.4 16523.7 5775.31 16523.7 5775.05 16523.6 5774.56 16523.3 5773.73 16522.3 5772.78 16521.6 5771.85 16520.9 5770.8 16520.4 5769.73 16520 5767.58 16519.3 5765.25 16519.3 5763.2 16520 5762.84 16520.1 5763.01 16520.6 5763.35 16520.6 5765.35 16520.2 5767.41 16520.6 5769.12 16521.5 5769.98 16521.9 5770.75 16522.5 5771.38 16523.2 5771.7 16523.5 5771.97 16523.9 5772.24 16524.3 5772.53 16524.7 5772.85 16525.2 5773.42 16525.7 5773.98 16526.2 5774.95 16526.6 5775.62 16526.6 5776.33 16526.7 5776.87 16526.7 5777.29 16526.7 5778.19 16526.8 5779.07 16527 5779.9 16527.3 5781.57 16527.9 5783.08 16528.9 5784.19 16530.2 5784.92 16531 5786.18 16530.8 5787.19 16530.1 5788.17 16529.5 5788.69 16528 5787.38 16526.9" fill="#fff" class="mkkdsak4732"></path>
<path transform="matrix(.1,0,0,-.1,0,1683.78)" d="M5795.3 16537.4C5795.16 16537.4 5795.2 16537.9 5795.33 16538 5798.28 16538.5 5800.31 16540.8 5801.01 16542.9 5801.18 16543.5 5805.74 16541.5 5804.85 16540.4 5802.29 16537.4 5798.33 16536.6 5795.3 16537.4" fill="#fff" class="mkkdsak4732"></path>


<path transform="matrix(.1,0,0,-.1,0,1683.78)" d="M5863.12 16423.3C5862.87 16423.8 5862.91 16424.5 5863.28 16425.2 5863.64 16425.9 5864.28 16426.6 5865.32 16427.2 5868.91 16429.4 5871.95 16432.7 5874.07 16436.5 5876.14 16440.3 5877.3 16444.8 5877.14 16449.2L5877.07 16451.3 5878.75 16450.3C5880.96 16449 5884.21 16449.8 5886.34 16451.7 5888.54 16453.7 5889.82 16456.6 5890.8 16459.5 5891.02 16460.1 5891.54 16460 5891.37 16459.3 5890.61 16456.3 5889.59 16453.2 5887.3 16450.7 5886.14 16449.5 5884.68 16448.6 5883.03 16448.1 5881.93 16447.7 5880.71 16447.6 5879.52 16447.8 5879.8 16443.5 5878.98 16439 5877.21 16435 5875.2 16430.4 5872.02 16426.3 5867.88 16423.4 5866.66 16422.5 5865.59 16422.2 5864.75 16422.3 5863.91 16422.4 5863.37 16422.8 5863.12 16423.3" fill="#fff" class="mkkdsak4732"></path>
<path transform="matrix(.1,0,0,-.1,0,1683.78)" d="M5845.93 16429.3C5850.34 16432.5 5853.54 16437 5855.71 16441.5 5856.41 16443.1 5860.82 16440.8 5859.64 16439.1 5856.16 16434.4 5851.28 16431 5846.21 16428.8 5846 16428.7 5845.73 16429.2 5845.93 16429.3" fill="#fff" class="mkkdsak4732"></path>
<path transform="matrix(.1,0,0,-.1,0,1683.78)" d="M5833.19 16405.5C5833.13 16407.3 5838.09 16407.6 5837.76 16405 5836.55 16397.8 5831.6 16391.8 5825.64 16388.9 5825.38 16388.7 5825.11 16389.2 5825.33 16389.4 5830.53 16393.3 5833.17 16399.7 5833.19 16405.5" fill="#fff" class="mkkdsak4732"></path>
<path transform="matrix(.1,0,0,-.1,0,1683.78)" d="M5853.27 16374C5849.73 16366.5 5849.64 16357.9 5852.04 16350.5 5852.91 16348.1 5848.29 16346.3 5847.59 16349.4 5845.87 16358.2 5848.1 16367.3 5852.76 16374.3 5852.96 16374.6 5853.42 16374.3 5853.27 16374" fill="#fff" class="mkkdsak4732"></path>
<path transform="matrix(.1,0,0,-.1,0,1683.78)" d="M5860.25 16383C5862.93 16379.2 5864.92 16374.5 5865.13 16369.4 5865.16 16367.6 5860.27 16368.3 5860.55 16369.7 5861.3 16373.8 5861.29 16378.4 5859.73 16382.7 5859.66 16382.9 5860.13 16383.2 5860.25 16383" fill="#fff" class="mkkdsak4732"></path>
<path transform="matrix(.1,0,0,-.1,0,1683.78)" d="M6184.23 16311.2C6187.15 16316.1 6189.22 16321.6 6190.74 16327.1 6191.72 16330.9 6196.51 16329.7 6195.1 16325.7 6193 16320 6190.14 16314.5 6186.44 16309.7 6182.74 16304.8 6178.14 16300.7 6172.79 16298 6172.32 16297.7 6172.06 16298.2 6172.49 16298.5 6177.46 16301.7 6181.31 16306.2 6184.23 16311.2" fill="#fff" class="mkkdsak4732"></path>
<path transform="matrix(.1,0,0,-.1,0,1683.78)" d="M6173.86 16319.9C6174.1 16321.3 6179.02 16320.6 6178.21 16318.4 6175.66 16312.5 6169.84 16308.9 6164.24 16308.5 6163.99 16308.4 6163.9 16309 6164.13 16309 6169.36 16310.7 6172.91 16315.3 6173.86 16319.9" fill="#fff" class="mkkdsak4732"></path>
<path transform="matrix(.1,0,0,-.1,0,1683.78)" d="M5848.88 16507.1C5847.52 16505.3 5845.84 16503.8 5843.95 16502.6 5842.04 16501.3 5839.84 16500.5 5837.55 16500.3 5837 16500.3 5836.64 16500.2 5836.63 16500.2 5836.63 16500.2 5836.54 16500.2 5836.5 16499.8 5836.46 16499.5 5836.54 16499 5836.54 16498.4 5836.54 16497.8 5836.47 16497.2 5836.38 16496.6 5835.93 16494.4 5834.7 16492.4 5833.11 16490.9 5831.52 16489.3 5829.54 16488.3 5827.5 16487.7 5825.47 16487.1 5823.38 16486.9 5821.32 16486.9 5820.59 16486.9 5820.57 16487.4 5821.29 16487.5 5825.29 16487.8 5829.41 16489.1 5831.96 16492 5833.25 16493.4 5834.09 16495.2 5834.27 16497 5834.3 16497.4 5834.32 16497.8 5834.27 16498.3 5834.25 16498.7 5834.11 16499.2 5834.11 16499.9 5834.11 16500.2 5834.13 16500.6 5834.29 16501.1 5834.45 16501.5 5834.77 16502 5835.18 16502.3 5836.02 16502.8 5836.75 16502.8 5837.2 16502.9 5840.79 16503.6 5843.84 16506.2 5845.88 16509.3 5847.93 16512.4 5849.04 16516.1 5849.88 16520 5850.95 16525.4 5855.82 16524.5 5854.32 16518.9 5853.18 16514.9 5851.66 16510.7 5848.88 16507.1" fill="#fff" class="mkkdsak4732"></path>
<path transform="matrix(.1,0,0,-.1,0,1683.78)" d="M5806.95 16495.4C5810.2 16495.7 5813.09 16497.4 5815.21 16499.6 5817.34 16501.8 5818.74 16504.6 5819.15 16507.4 5819.31 16509.1 5824.31 16509 5823.61 16506.2 5822.43 16502.5 5819.89 16499.5 5816.9 16497.6 5813.9 16495.6 5810.36 16494.5 5806.96 16494.8 5806.66 16494.8 5806.66 16495.3 5806.95 16495.4" fill="#fff" class="mkkdsak4732"></path>
<path transform="matrix(.1,0,0,-.1,0,1683.78)" d="M5785.3 16451.1C5790.33 16452.7 5793.7 16457.9 5793.24 16462.7L5793.15 16463.7 5794.26 16463.9C5797.31 16464.6 5799.97 16466.5 5802.08 16468.9 5804.2 16471.2 5805.81 16474.1 5807.32 16477.1 5809.14 16480.8 5813.53 16478.5 5811.32 16474.8 5809.48 16471.8 5807.38 16468.8 5804.6 16466.3 5802.08 16464.1 5798.97 16462.3 5795.56 16461.7 5794.87 16456.2 5790.55 16451.6 5785.45 16450.5 5784.9 16450.4 5784.8 16450.9 5785.3 16451.1" fill="#fff" class="mkkdsak4732"></path>
<path transform="matrix(.1,0,0,-.1,0,1683.78)" d="M5916.39 16412.7C5922.58 16410.1 5927.87 16404 5928.95 16396.5 5929.22 16393.9 5923.74 16394.4 5923.88 16396.2 5924.09 16401.9 5921.48 16408.4 5916.08 16412.1 5915.85 16412.3 5916.12 16412.8 5916.39 16412.7" fill="#fff" class="mkkdsak4732"></path>
<path transform="matrix(.1,0,0,-.1,0,1683.78)" d="M5948.43 16454C5951 16450.9 5953.57 16447.7 5955.82 16444.2 5958.06 16440.8 5959.98 16437.1 5961.11 16433 5962.22 16429 5962.4 16424.6 5961.45 16420.4 5960.63 16416.8 5958.8 16413.2 5955.92 16410.5 5962.2 16402.6 5964.08 16391.5 5960.95 16381.8 5960.16 16379.5 5959.08 16377.9 5958.09 16377.1 5957.1 16376.3 5956.31 16376.1 5955.81 16376.5 5954.78 16377.2 5955.13 16379.5 5956.61 16383.3 5959.77 16391.9 5958.38 16402.4 5952.47 16409.7L5951.34 16411.1 5952.76 16412C5955.82 16414 5957.96 16417.3 5959.01 16421 5960.07 16424.7 5960.14 16428.8 5959.32 16432.6 5958.47 16436.4 5956.82 16440.1 5954.8 16443.6 5952.78 16447.1 5950.39 16450.4 5947.96 16453.7 5947.28 16454.6 5947.7 16454.9 5948.43 16454" fill="#fff" class="mkkdsak4732"></path>
<path transform="matrix(.1,0,0,-.1,0,1683.78)" d="M6043.24 16389.5C6043.73 16391.7 6043.57 16394.1 6042.77 16396.4 6041.98 16398.6 6040.43 16400.6 6038.24 16401.6 6037.65 16401.9 6037.79 16402.4 6038.46 16402.1 6040.91 16401.3 6042.81 16399.2 6043.89 16396.8 6044.99 16394.5 6045.42 16391.8 6045.11 16389.2 6044.53 16384.4 6042.13 16380.2 6039.74 16376.3 6041.46 16374.6 6043.13 16372.8 6044.46 16370.5 6046.02 16367.9 6046.99 16364.7 6046.68 16361.4 6046.53 16359.8 6045.81 16358.6 6045.09 16358.1 6044.36 16357.6 6043.65 16357.6 6043.15 16357.9 6042.64 16358.2 6042.31 16358.8 6042.14 16359.5 6041.96 16360.1 6041.96 16360.9 6042.13 16361.9 6042.48 16364.1 6042.04 16366.4 6040.96 16368.6 6039.88 16370.9 6038.26 16372.9 6036.47 16374.9L6035.53 16376 6036.3 16377C6039.28 16380.9 6042.24 16384.8 6043.24 16389.5" fill="#fff" class="mkkdsak4732"></path>
<path transform="matrix(.1,0,0,-.1,0,1683.78)" d="M5932.23 16454.9C5937.14 16448.4 5940.3 16440.2 5940.18 16431.5 5940.05 16428.5 5934.67 16429.5 5935.11 16431.9 5936.27 16439.3 5935.38 16447.4 5931.69 16454.5 5931.53 16454.8 5932.03 16455.2 5932.23 16454.9" fill="#fff" class="mkkdsak4732"></path>
<path transform="matrix(.1,0,0,-.1,0,1683.78)" d="M6220.54 16473.8C6220.45 16474 6220.92 16474.3 6221.07 16474 6224.43 16468.7 6225.85 16461.6 6223.94 16455 6223.19 16452.6 6218.8 16454.9 6219.64 16456.6 6222.03 16461.6 6222.74 16467.9 6220.54 16473.8" fill="#fff" class="mkkdsak4732"></path>
<path transform="matrix(.1,0,0,-.1,0,1683.78)" d="M6212.81 16454.6C6213.18 16454.9 6213.54 16454.5 6213.21 16454.1 6211.35 16452.2 6209.51 16450.2 6208.48 16447.8 6207.41 16445.5 6207.46 16443 6207.98 16440.5 6208.49 16438 6209.41 16435.4 6210.04 16432.6 6210.63 16429.8 6210.89 16426.9 6210.77 16424.1 6210.67 16422.1 6209.29 16421.3 6208.13 16421.5 6206.95 16421.7 6205.96 16422.8 6206.2 16424.5 6206.54 16427 6206.6 16429.5 6206.36 16432.1 6206.13 16434.6 6205.54 16437.3 6205.34 16440.1 6205.11 16443 6205.49 16446.1 6207.07 16448.6 6208.59 16451.1 6210.74 16452.8 6212.81 16454.6" fill="#fff" class="mkkdsak4732"></path>
<path transform="matrix(.1,0,0,-.1,0,1683.78)" d="M5877.64 16262.1C5877.66 16261.5 5876.44 16261.4 5876.34 16262 5875.62 16266.3 5875.05 16270.8 5874.96 16275.2 5874.87 16279.7 5875.27 16284.3 5876.46 16288.6 5877.08 16290.8 5881.28 16289.4 5880.77 16287.5 5878.7 16279.3 5877.45 16270.7 5877.64 16262.1" fill="#fff" class="mkkdsak4732"></path>
<path transform="matrix(.1,0,0,-.1,0,1683.78)" d="M5886.36 16423.1C5884.34 16420 5883.32 16416.4 5882.99 16413 5882.66 16409.5 5882.97 16406.1 5883.58 16402.8 5883.9 16401.3 5879.66 16400.1 5879.2 16402 5877.53 16409.8 5880.08 16418.3 5885.33 16423.9 5885.7 16424.3 5886.64 16423.5 5886.36 16423.1" fill="#fff" class="mkkdsak4732"></path>
<path transform="matrix(.1,0,0,-.1,0,1683.78)" d="M6111.98 16565.1C6113.08 16571.9 6112.49 16578.8 6110.14 16585.1 6109.33 16587.2 6109.93 16588.7 6111.03 16589.2 6112.08 16589.7 6113.73 16589 6114.5 16586.5 6116.65 16579.3 6116.49 16571.6 6114.59 16564.5 6112.67 16557.5 6109.01 16550.9 6103.84 16545.9 6103.4 16545.5 6103.02 16545.9 6103.41 16546.3 6108.06 16551.6 6110.87 16558.3 6111.98 16565.1" fill="#fff" class="mkkdsak4732"></path>
<path transform="matrix(.1,0,0,-.1,0,1683.78)" d="M6137.02 16426.8C6139.57 16432.7 6142.34 16438.5 6142.91 16444.9 6142.98 16445.5 6143.52 16445.4 6143.5 16444.9 6143.54 16438.3 6141.39 16432 6139.52 16425.9 6137.62 16419.8 6135.79 16413.6 6136.35 16407.8 6136.55 16405.9 6135.61 16404.7 6134.41 16404.4 6133.83 16404.3 6133.2 16404.5 6132.7 16405 6132.22 16405.5 6131.72 16406.4 6131.76 16407.6 6131.72 16411.1 6132.42 16414.5 6133.42 16417.7 6134.43 16420.9 6135.73 16423.9 6137.02 16426.8" fill="#fff" class="mkkdsak4732"></path>
<path transform="matrix(.1,0,0,-.1,0,1683.78)" d="M5821.12 16451.8C5824.32 16452.6 5826.56 16456.1 5825.83 16459.1L5825.62 16460 5826.57 16459.9C5828.65 16459.5 5830.79 16460 5832.65 16461 5834.52 16461.9 5836.14 16463.4 5837.37 16465.1 5839.87 16468.5 5840.99 16472.8 5841.99 16477.2L5842.23 16478.2 5843.43 16478.3C5850.65 16479 5857.31 16483.4 5861.02 16489.4 5862.6 16492 5864.12 16493.1 5865.3 16492.7 5865.85 16492.5 5866.24 16491.9 5866.28 16490.9 5866.31 16489.8 5865.91 16488.4 5864.85 16486.8 5860.21 16480.2 5852.65 16475.8 5844.7 16475.2 5843.45 16471.3 5841.94 16467.1 5839.1 16463.7 5837.54 16461.9 5835.6 16460.4 5833.39 16459.4 5831.45 16458.6 5829.25 16458.2 5827.13 16458.5 5827.19 16455 5824.52 16451.8 5821.23 16451.2 5820.28 16451.1 5820.3 16451.7 5821.12 16451.8" fill="#fff" class="mkkdsak4732"></path>
<path transform="matrix(.1,0,0,-.1,0,1683.78)" d="M5793.29 16446.1C5793.98 16446.7 5794.44 16447.5 5794.54 16448.2 5794.56 16448.6 5797.07 16448.4 5796.71 16447.5 5796.13 16446.2 5795.07 16445.4 5793.99 16444.9 5792.9 16444.5 5791.8 16444.3 5790.74 16444.3 5790.65 16444.3 5790.6 16444.5 5790.68 16444.6 5791.66 16444.9 5792.59 16445.4 5793.29 16446.1" fill="#fff" class="mkkdsak4732"></path>
<path transform="matrix(.1,0,0,-.1,0,1683.78)" d="M5752.66 16457.5C5752.94 16457.9 5754.81 16456.2 5754.11 16455.7 5753.12 16455.1 5751.98 16454.8 5750.89 16454.8 5749.76 16454.8 5748.86 16455.3 5747.96 16455.4 5747.88 16455.4 5747.84 16455.6 5747.93 16455.7 5748.93 16455.9 5749.93 16455.8 5750.7 16456.2 5751.5 16456.4 5752.17 16457 5752.66 16457.5" fill="#fff" class="mkkdsak4732"></path>
<path transform="matrix(.1,0,0,-.1,0,1683.78)" d="M5752.43 16434.1C5752.8 16434.4 5753.63 16433.5 5753.09 16433.1 5751.52 16432.2 5749.61 16431.9 5747.95 16432.3 5747.88 16432.3 5747.89 16432.5 5747.96 16432.5 5749.65 16432.4 5751.25 16433.1 5752.43 16434.1" fill="#fff" class="mkkdsak4732"></path>
<path transform="matrix(.1,0,0,-.1,0,1683.78)" d="M5811.47 16490.9C5811.76 16491.2 5812.64 16490.3 5812.15 16490 5810.75 16489.1 5808.99 16489.1 5807.65 16489.7 5807.59 16489.8 5807.64 16489.9 5807.7 16489.9 5809.11 16489.6 5810.55 16490.1 5811.47 16490.9" fill="#fff" class="mkkdsak4732"></path>
<path transform="matrix(.1,0,0,-.1,0,1683.78)" d="M5775.61 16494.7C5775.82 16494.5 5775.94 16494.5 5775.96 16494.5 5775.98 16494.5 5776.03 16494.5 5776.21 16494.6 5776.47 16494.7 5776.81 16494.7 5777.04 16494.4 5777.28 16494.2 5777.17 16493.6 5776.89 16493.4 5776.51 16493 5776.12 16493 5775.96 16492.9 5775.74 16492.9 5775.53 16492.9 5775.31 16492.8 5774.89 16492.8 5774.46 16492.7 5774.03 16492.7 5773.18 16492.7 5772.34 16492.8 5771.54 16493 5771.47 16493 5771.47 16493.2 5771.54 16493.2 5772.31 16493.4 5773.05 16493.7 5773.74 16494 5774.08 16494.2 5774.41 16494.4 5774.73 16494.6L5775.19 16494.9C5775.26 16494.9 5775.39 16495 5775.36 16495 5775.31 16495.1 5775.45 16494.9 5775.61 16494.7" fill="#fff" class="mkkdsak4732"></path>
<path transform="matrix(.1,0,0,-.1,0,1683.78)" d="M5742.79 16511.3C5739.63 16510.6 5736.31 16511.5 5733.95 16513.4 5733.83 16513.5 5733.92 16513.6 5734.04 16513.5 5736.56 16511.9 5739.77 16511.5 5742.49 16512.4 5743.39 16512.7 5743.88 16511.6 5742.79 16511.3" fill="#fff" class="mkkdsak4732"></path>
<path transform="matrix(.1,0,0,-.1,0,1683.78)" d="M5834.59 16430.9C5834.48 16430.9 5834.5 16431.1 5834.59 16431.1 5836.79 16431.2 5838.77 16432.4 5840.02 16434 5840.41 16434.5 5841.45 16433.8 5840.88 16433.2 5839.2 16431.5 5836.79 16430.7 5834.59 16430.9" fill="#fff" class="mkkdsak4732"></path>
<path transform="matrix(.1,0,0,-.1,0,1683.78)" d="M5846.46 16399.7C5846.76 16400.3 5847.03 16400.9 5847.27 16401.5 5847.52 16402.1 5847.72 16402.7 5847.71 16403.2 5847.7 16403.5 5847.91 16403.7 5848.19 16403.9 5848.46 16404 5848.88 16403.8 5848.85 16403.2 5848.79 16402.3 5848.43 16401.7 5848.11 16401.1 5847.78 16400.5 5847.42 16399.9 5847.03 16399.3 5846.27 16398.2 5845.41 16397.2 5844.49 16396.2 5844.41 16396.1 5844.31 16396.2 5844.38 16396.3 5845.18 16397.4 5845.87 16398.5 5846.46 16399.7" fill="#fff" class="mkkdsak4732"></path>
<path transform="matrix(.1,0,0,-.1,0,1683.78)" d="M5895.58 16444.1C5901.94 16450.6 5905.29 16460.3 5903.71 16469.6 5903.65 16470.1 5903.91 16470.1 5904 16469.7 5906.21 16460.5 5903.79 16450 5897.26 16442.6 5894.9 16440.1 5893.36 16442 5895.58 16444.1" fill="#fff" class="mkkdsak4732"></path>
<path transform="matrix(.1,0,0,-.1,0,1683.78)" d="M5902.18 16394C5902.2 16394.2 5902.46 16394.2 5902.48 16394 5902.71 16390.8 5902.2 16387.4 5900.64 16384.4 5900.07 16383.3 5898.07 16384.8 5898.68 16385.6 5900.45 16388 5901.8 16390.9 5902.18 16394" fill="#fff" class="mkkdsak4732"></path>
<path transform="matrix(.1,0,0,-.1,0,1683.78)" d="M5896.68 16408.5C5897.12 16412.2 5897.13 16416.1 5897.27 16419.9 5897.28 16420.2 5897.55 16420.2 5897.57 16419.9 5897.72 16416.1 5898.1 16412.3 5898.01 16408.4 5897.91 16404.5 5897.2 16400.4 5895.01 16396.9 5894.24 16395.7 5893.28 16395.6 5892.85 16396 5892.41 16396.4 5892.4 16397.3 5893.1 16398.2 5895.19 16401.1 5896.24 16404.7 5896.68 16408.5" fill="#fff" class="mkkdsak4732"></path>
<path transform="matrix(.1,0,0,-.1,0,1683.78)" d="M5877.51 16518.3C5876.64 16517.2 5875.59 16516.2 5874.43 16515.4 5873.27 16514.6 5872.07 16514 5870.91 16513.4 5869.75 16512.8 5868.63 16512.2 5867.69 16511.4 5866.72 16510.6 5866.02 16509.6 5865.45 16508.4 5864.86 16507.2 5864.37 16506 5863.6 16504.8 5862.84 16503.7 5861.79 16502.7 5860.44 16502.4 5859.96 16502.3 5859.94 16502.5 5860.36 16502.7 5861.58 16503 5862.49 16504 5863.14 16505.1 5863.8 16506.2 5864.21 16507.5 5864.73 16508.7 5865.23 16509.9 5865.94 16511.2 5866.97 16512.2 5867.96 16513.2 5869.12 16513.9 5870.25 16514.6 5871.38 16515.3 5872.51 16515.9 5873.49 16516.7 5874.47 16517.5 5875.33 16518.4 5876.02 16519.4 5877.42 16521.4 5878.23 16523.8 5878.33 16526.2 5878.37 16527.8 5878.75 16528.7 5879.36 16528.9 5879.92 16529 5880.75 16528.1 5880.62 16526.1 5880.36 16523.2 5879.26 16520.5 5877.51 16518.3" fill="#fff" class="mkkdsak4732"></path>
<path transform="matrix(.1,0,0,-.1,0,1683.78)" d="M5831.15 16536.4C5830.59 16532.3 5827.24 16528.9 5823.37 16528.3 5822.98 16528.3 5822.95 16528.5 5823.31 16528.6 5827.16 16529.5 5830.04 16533.2 5830 16536.9L5829.99 16537.3 5830.48 16537.5C5834.87 16538.6 5838.4 16542.2 5839.68 16546.4 5840.07 16547.7 5840.71 16548.3 5841.32 16548.2 5841.89 16548.1 5842.41 16547.2 5841.85 16545.6 5840.07 16540.9 5835.91 16537.4 5831.15 16536.4" fill="#fff" class="mkkdsak4732"></path>
<path transform="matrix(.1,0,0,-.1,0,1683.78)" d="M5814.46 16528.8C5811.96 16526.4 5808.68 16525.2 5805.52 16525.1 5805.38 16525.1 5805.35 16525.4 5805.48 16525.4 5808.51 16526.1 5811.05 16528.1 5812.78 16530.3 5813.32 16531.1 5815.32 16529.6 5814.46 16528.8" fill="#fff" class="mkkdsak4732"></path>
<path transform="matrix(.1,0,0,-.1,0,1683.78)" d="M6082.06 16395.8C6082.13 16398.6 6081.68 16401.5 6081.54 16404.6 6081.13 16410.8 6083.51 16417.1 6087.7 16421.4 6088.07 16421.8 6088.46 16421.4 6088.15 16421 6084.52 16416.4 6083.14 16410.4 6084.19 16404.9 6084.66 16402 6085.49 16399.1 6085.77 16396 6086.07 16392.9 6086 16389.8 6085.83 16386.8 6085.57 16382.7 6080.67 16383.3 6081.27 16387.3 6081.68 16390.1 6082.02 16393 6082.06 16395.8" fill="#fff" class="mkkdsak4732"></path>
<path transform="matrix(.1,0,0,-.1,0,1683.78)" d="M6004.51 16432.9C6004.79 16434.1 6005.98 16433.9 6005.79 16432.6 6005.22 16428.2 6004.28 16423.8 6004.51 16419.5 6004.79 16415.1 6006.59 16411.2 6008.53 16407.2 6010.45 16403.2 6012.58 16399.1 6013.34 16394.3 6014.07 16389.5 6013.35 16384.5 6011.28 16380.1 6010.24 16378 6008.61 16377.6 6007.71 16378.2 6006.78 16378.9 6006.44 16380.3 6007.25 16382 6008.92 16385.7 6009.6 16389.8 6009.16 16393.8 6008.71 16397.8 6007.04 16401.7 6005.38 16405.9 6003.72 16410 6002.07 16414.6 6002.16 16419.5 6002.23 16421.9 6002.6 16424.1 6003.07 16426.3 6003.55 16428.5 6004.03 16430.7 6004.51 16432.9" fill="#fff" class="mkkdsak4732"></path>
<path transform="matrix(.1,0,0,-.1,0,1683.78)" d="M5989.26 16440.1C5990.9 16437.9 5991.77 16435.1 5992.17 16432.3 5992.56 16429.4 5992.54 16426.6 5992.46 16423.8 5992.36 16421 5992.29 16418.3 5992.54 16415.7 5992.79 16413.1 5993.35 16410.7 5994.46 16408.7 5994.97 16407.8 5994.52 16406.7 5993.65 16406 5993.22 16405.6 5992.68 16405.4 5992.12 16405.5 5991.55 16405.5 5990.98 16405.9 5990.58 16406.6 5988.93 16409.4 5988.4 16412.6 5988.33 16415.6 5988.26 16418.5 5988.65 16421.4 5989.07 16424.2 5989.47 16426.9 5989.84 16429.5 5989.82 16432.1 5989.8 16434.7 5989.37 16437.2 5988.16 16439.4 5987.82 16440 5988.79 16440.8 5989.26 16440.1" fill="#fff" class="mkkdsak4732"></path>
<path transform="matrix(.1,0,0,-.1,0,1683.78)" d="M5998.02 16399.8C5998.95 16398.4 5999.34 16396.6 5999.61 16394.9 5999.63 16394.8 5998.55 16394.2 5998.45 16394.3 5997.08 16395.5 5994.84 16396.2 5994.07 16397.7 5993.89 16398.1 5997.79 16400.1 5998.02 16399.8" fill="#fff" class="mkkdsak4732"></path>
<path transform="matrix(.1,0,0,-.1,0,1683.78)" d="M6025.3 16402.7C6027.75 16401.6 6030 16399.6 6031.39 16396.9 6032.78 16394.3 6033.29 16390.9 6032.11 16387.8 6031.44 16386.2 6027.62 16388.5 6027.95 16389.4 6028.62 16391.4 6028.69 16393.6 6028.14 16395.8 6027.61 16398 6026.44 16400.2 6024.61 16401.6 6024.36 16401.8 6024.95 16402.9 6025.3 16402.7" fill="#fff" class="mkkdsak4732"></path>
<path transform="matrix(.1,0,0,-.1,0,1683.78)" d="M5869.48 16520C5869.06 16519.3 5868.85 16518.5 5868.32 16517.9 5867.95 16517.4 5867.27 16517.6 5866.89 16517.9 5865.42 16519.2 5866.41 16521.2 5867.41 16522.4 5867.95 16523.1 5868.59 16523.6 5869.24 16524.2 5869.87 16524.7 5870.72 16525.3 5871.16 16525.9 5871.42 16526.4 5872.22 16526.4 5872.31 16525.8 5872.55 16524.2 5872.2 16523.2 5871.18 16521.9 5870.63 16521.3 5869.93 16520.7 5869.48 16520" fill="#fff" class="mkkdsak4732"></path>
<path transform="matrix(.1,0,0,-.1,0,1683.78)" d="M5881.42 16461.6C5881.07 16461.2 5880.63 16460.9 5880.16 16460.7 5879.39 16460.3 5878.75 16460.2 5877.94 16460.6 5877.07 16461 5877.1 16462.2 5877.65 16462.8 5878.18 16463.3 5879.07 16463.4 5879.74 16463.8 5879.99 16463.9 5880.24 16464.1 5880.45 16464.3 5880.73 16464.5 5881.11 16464.7 5881.36 16465 5881.76 16465.4 5882.4 16465 5882.43 16464.5 5882.48 16463.9 5882.53 16463.5 5882.26 16462.9 5882.04 16462.4 5881.77 16462 5881.42 16461.6" fill="#fff" class="mkkdsak4732"></path>
<path transform="matrix(.1,0,0,-.1,0,1683.78)" d="M5806.79 16404C5806.7 16405.1 5807.92 16405.8 5808.89 16405.6 5818.82 16403.7 5814.1 16415.1 5815.62 16418.9 5817.63 16424 5823.4 16424.8 5822.27 16431.8 5822.19 16432.3 5822.89 16432.7 5823.11 16432.2 5824.22 16429.6 5824.58 16427.3 5823.5 16424.6 5822.98 16423.3 5822.17 16422.5 5821.46 16421.4 5819.23 16417.9 5818.72 16416.5 5818.79 16412.5 5818.89 16406.5 5815.89 16402 5810.1 16402.2 5809.73 16397.9 5806.85 16394.7 5802.35 16394.2 5800.67 16394 5800.66 16396.4 5801.98 16396.9 5805.59 16398.1 5807.19 16400.4 5806.79 16404" fill="#fff" class="mkkdsak4732"></path>
<path transform="matrix(.1,0,0,-.1,0,1683.78)" d="M5812.93 16361.2C5811.63 16357.2 5811.37 16351.7 5814.8 16348.9 5815.84 16348.1 5814.88 16346.6 5813.81 16346.5 5810.82 16346.2 5809.53 16349.9 5809.21 16352.3 5808.75 16355.7 5809.86 16358.9 5811.85 16361.6 5812.21 16362.1 5813.16 16361.8 5812.93 16361.2" fill="#fff" class="mkkdsak4732"></path>
<path transform="matrix(.1,0,0,-.1,0,1683.78)" d="M6244.17 16474C6244.19 16474.1 6244.21 16474.1 6244.23 16474.2 6253.27 16481 6259.07 16490.6 6258.83 16502.7 6258.58 16514.7 6252.21 16525.6 6242.53 16532.3 6253.35 16550.8 6242.04 16576.8 6219.17 16576.6 6217.93 16583.9 6214.98 16590.7 6208.71 16595.2 6202.54 16599.6 6195.05 16600.2 6188.55 16596.8 6185.41 16599.6 6181.3 16601.4 6177.23 16601.9 6170.43 16602.8 6164.23 16600.3 6159.39 16595.9 6153.86 16605.7 6144.42 16611.4 6132.82 16613.1 6119.79 16615.2 6105.07 16611.9 6097.43 16600.9 6093.14 16605.8 6087.25 16608.7 6080.45 16606.6 6079.95 16606.4 6079.55 16606.2 6079.23 16605.9 6075.52 16608.9 6070.46 16610.8 6066.39 16611.3 6059.71 16612.1 6052.46 16610.6 6047.1 16606.6 6034.09 16614.9 6014.29 16611.7 6004.52 16599.8 5990.51 16608.5 5974.33 16605.9 5959.02 16600.8 5950.77 16611 5935.95 16610 5928.88 16599.7 5920.6 16608 5907.64 16613.3 5898.3 16606.1 5896.11 16612.4 5891.8 16617.6 5884.96 16619.8 5878.84 16621.7 5872.48 16620.8 5867.76 16617.2 5861.73 16627.3 5848.68 16631.5 5837.62 16626.3 5834.93 16629.3 5831.79 16631.4 5828.17 16632.7 5833.12 16638.8 5836.95 16646.3 5840.87 16652.4 5842.07 16654.2 5840.46 16656.3 5838.52 16656.5 5830.38 16657.1 5823.11 16660.4 5815.17 16661.9 5812.53 16662.3 5809.87 16662.6 5807.21 16662.8 5803.79 16674.9 5792.76 16683.2 5781.14 16677.9 5779.37 16685.2 5775.03 16692 5767.84 16694.9 5763.73 16696.5 5759.37 16696.4 5755.23 16695 5751.09 16693.5 5748.3 16690.4 5744.83 16688.3 5742.87 16689.7 5741.46 16692 5739.01 16693.1 5736.59 16694.1 5733.88 16694.4 5731.3 16693.9 5727.21 16693.1 5724.58 16690.4 5722.75 16687.1 5714.48 16691.8 5703.73 16691.9 5696.3 16685.2 5689.05 16678.6 5687.53 16667.7 5690.89 16658.8 5677.17 16658.9 5663.46 16651.3 5649.58 16654.7 5648.11 16655.1 5646.13 16653.6 5646.83 16652 5649.13 16646.5 5652.58 16641.6 5656.8 16637.5 5661.5 16632.2 5667.08 16627.5 5672.37 16624.5 5676.57 16622.2 5683.14 16620.8 5688.46 16622 5687.61 16620.2 5686.76 16618.4 5685.96 16616.6 5682.8 16609.5 5679.86 16601.6 5682.46 16593.8 5683.5 16590.7 5685.39 16588.4 5687.76 16586.8 5688.53 16575.4 5692.71 16563.3 5702.11 16557.2 5697.14 16550.8 5699.19 16541.2 5702.46 16533.5 5702.36 16533.2 5702.29 16532.9 5702.27 16532.6V16532.5C5702.27 16532.5 5702.27 16532.5 5702.27 16532.5 5691.02 16524 5687.98 16507.1 5698.32 16496.1 5699.53 16494.8 5700.71 16494 5701.95 16493.3 5702.38 16493 5702.79 16492.7 5703.23 16492.4 5705.07 16491.2 5707.05 16490.3 5709.1 16489.6 5708.96 16489.2 5708.67 16488.6 5708.21 16487.6 5707.46 16485.8 5706.45 16484.5 5705.86 16482.6 5703.89 16476.6 5704.32 16470.8 5708.32 16466.7 5706.92 16464.3 5705.96 16461.8 5705.39 16459.3 5699.61 16443.1 5711.26 16422.7 5729.45 16422.4 5729.71 16421.7 5730.03 16421 5730.43 16420.3 5731.85 16417.9 5733.78 16416.5 5736.13 16415.1 5739.3 16413.3 5738.98 16413.9 5739.14 16410.4 5739.57 16400.2 5744.6 16391 5753.69 16387.1 5745.87 16365.1 5767.26 16341.3 5789 16346.4 5788.27 16341.3 5789.73 16335.9 5793.45 16332.2 5798.98 16326.6 5809.86 16324.3 5816.92 16328.4 5816.73 16322.8 5817.66 16317.2 5819.88 16311.8 5821.38 16308.2 5825.64 16304.3 5826.46 16300.7 5827.45 16296.4 5825.02 16289.5 5824.48 16285.2 5823.73 16279.2 5823.34 16272.7 5820.68 16267.2 5818.18 16262 5813.43 16258.5 5809.94 16254.1 5804.05 16246.6 5801.61 16237.4 5802.59 16228 5802.77 16226.2 5803.71 16224.3 5805.64 16224 5811.66 16222.8 5817.67 16222.1 5823.77 16222.2 5823.83 16221.2 5823.87 16220.3 5823.88 16219.3 5823.91 16217.7 5825.14 16215.6 5826.93 16215.3 5835.21 16214.1 5843.54 16213.3 5851.92 16213.3 5859.25 16213.2 5867.78 16212.9 5874.93 16214.7 5879.61 16216 5881.27 16219.5 5881.64 16224.1 5882.2 16231 5881.59 16238.1 5880.52 16245.1 5882.88 16245.8 5885.26 16246.4 5887.8 16246.7 5890.64 16247.1 5892.3 16249.1 5891.8 16252 5888.57 16270.8 5892.98 16288.2 5900.34 16305.4 5903.58 16306.6 5905.93 16308.6 5908.01 16310.4 5908.04 16310.4 5908.05 16310.4 5908.09 16310.5 5908.27 16310.6 5908.45 16310.7 5908.62 16310.8 5914.46 16315.4 5920.7 16322.4 5923.3 16330.1 5928.14 16326.4 5934.17 16324.3 5940.39 16324.3 5940.44 16324.3 5940.48 16324.3 5940.52 16324.3 5940.88 16324.3 5941.26 16324.2 5941.66 16324.3 5941.92 16324.3 5942.16 16324.4 5942.42 16324.4 5948.68 16324.9 5953.92 16327.6 5958.59 16331.4 5962.11 16322.5 5972.09 16313.9 5981.54 16313.1 5988.61 16312.5 5996.64 16317.3 5999.66 16324 6004.64 16317.5 6012.17 16313 6020.63 16312.3 6020.76 16312.3 6020.89 16312.3 6021.02 16312.3 6021.54 16312.2 6022.12 16312.2 6022.71 16312.3 6033.85 16312.3 6043.77 16319.2 6048.78 16328.8 6056.14 16324.5 6063.51 16324.1 6071.98 16329.2 6076.78 16332 6081.83 16336.2 6084.96 16341.2 6088.23 16334 6095.21 16327.1 6102.82 16326.1 6107.33 16325.4 6111.88 16326.6 6115.64 16329.1 6119.46 16331.7 6120.54 16334.6 6122.14 16338.3 6123.6 16335 6125.75 16332.1 6128.95 16330.4 6129.32 16330.2 6129.7 16330 6130.08 16329.9 6125.89 16325.2 6124.82 16319.8 6126.3 16312.6 6128.13 16303.9 6133.1 16296.3 6139.3 16290.1 6130.63 16280.7 6133.42 16266.8 6138.71 16255.5 6138.86 16255.2 6139.01 16255 6139.19 16254.8 6129.59 16247.4 6114.3 16239.3 6118.45 16225.5 6118.79 16224.3 6119.84 16223.5 6121.05 16223.4 6125.32 16220 6130.86 16222.6 6136.12 16222.3 6137.34 16222.2 6138.58 16222.3 6139.83 16222.3 6148.95 16221.5 6158.08 16220.7 6167.14 16222.3 6171.91 16223.2 6173.07 16226.9 6174.08 16231 6176.39 16230.9 6178.82 16231.3 6181.05 16231.4 6182.89 16231.6 6184.71 16231.8 6186.52 16232.1 6188.66 16232.1 6190.8 16232 6192.98 16231.7 6194.3 16231.5 6195.1 16232.8 6195.23 16233.9 6195.75 16238 6195.68 16242.1 6195.89 16246.2 6198.03 16255.4 6202.18 16264.3 6203.76 16273.6 6203.89 16274.4 6204.03 16275.3 6204.14 16276.1 6204.32 16277 6204.46 16278 6204.55 16279 6205.3 16284.6 6206 16289.8 6208.69 16295.3 6211.21 16300.4 6214.33 16305.5 6215.55 16311.1 6216.96 16317.6 6212.46 16325.1 6216.73 16330.3 6220.3 16334.7 6223.73 16338.1 6225.98 16343.5 6229.48 16351.8 6230.96 16363.6 6225.01 16371.2 6233.25 16377.9 6234.66 16391.2 6230.23 16401.1 6235.61 16403.5 6240.01 16409.7 6241.55 16414.5 6243.13 16419.5 6243.73 16426.8 6241.14 16431.9 6248.05 16434.3 6253.62 16439.8 6255.3 16447.7 6256.36 16452.7 6255.59 16457.3 6253.63 16461.5 6252.01 16466.5 6248.64 16471 6244.17 16474M5665.3 16637.9C5661.46 16641.3 5658.26 16645.5 5654.89 16649.5 5668.43 16648.1 5683 16649.8 5695.87 16653.7 5696.05 16653.7 5696.18 16653.8 5696.33 16653.9 5698.12 16652.4 5700.21 16651.2 5702.44 16650.7 5702.79 16650.6 5703.18 16650.8 5703.34 16651.1 5703.52 16651.5 5703.35 16652 5702.95 16652.1 5700.29 16653.4 5698.71 16655.5 5697.35 16657.9 5688.25 16673.1 5704.91 16687.8 5719.25 16681.6 5719.33 16681.5 5719.39 16681.5 5719.48 16681.4 5721.08 16680.5 5722.51 16679.4 5723.88 16678.2 5725.08 16677.1 5726.38 16675.4 5727.96 16674.9 5728.62 16674.7 5729.46 16675.2 5729.6 16675.9 5730.03 16677.9 5728.54 16680.1 5727.3 16681.6 5727.23 16681.7 5727.14 16681.8 5727.05 16681.9 5727.12 16682.1 5727.16 16682.3 5727.19 16682.5 5727.75 16687.5 5733.84 16689.7 5738.1 16687.5 5739.96 16686.6 5740.92 16684.1 5742.77 16683.1 5744.79 16682 5746.11 16682.2 5748.3 16682.9 5753.29 16684.5 5756.7 16688.7 5762.33 16688.7 5770.93 16688.6 5775.68 16681.5 5776.43 16673.6 5776.61 16671.7 5778.66 16670 5780.54 16671.3 5791.17 16678.4 5797.78 16671.5 5802.85 16663.1 5800.57 16663.1 5798.29 16663.1 5796 16663 5786.68 16662.5 5777.67 16659.9 5773.17 16651.8 5771.73 16652.6 5770.44 16653.7 5769.18 16654.7 5771.55 16656.9 5773.32 16659.9 5774.08 16663.6 5774.43 16665.3 5772.14 16666.4 5771.2 16664.8 5769.14 16661.4 5766.51 16658.7 5763.46 16657.1 5763.37 16657 5763.27 16657 5763.18 16656.9 5759.23 16654.9 5754.64 16654.6 5749.71 16656.8 5749.75 16657.1 5749.78 16657.4 5749.79 16657.7 5749.83 16659.2 5747.88 16660 5746.85 16658.9 5743.41 16655.5 5741.27 16650.9 5736.66 16648.8 5729.71 16645.5 5723.14 16650.3 5718.39 16654.9 5716.37 16656.9 5713.11 16655.9 5712.28 16653.3 5712.21 16653.1 5712.14 16652.9 5712.05 16652.6 5712 16652.5 5711.93 16652.4 5711.89 16652.2 5710.14 16645.5 5691.43 16647 5686.04 16647.3 5683.46 16647.5 5683.21 16643.7 5685.45 16643 5688.86 16641.9 5693.45 16641.1 5698.12 16641.1 5698.27 16641 5698.41 16640.9 5698.55 16640.9 5697.39 16638.9 5696.25 16637 5695.14 16635 5683.87 16629.2 5673.75 16631.7 5665.3 16637.9M5824.2 16230.5C5821.86 16230.4 5819.54 16230.5 5817.21 16230.7 5817.2 16230.9 5817.19 16231.1 5817.14 16231.3 5814.62 16242 5822.39 16250.8 5827.8 16259.1 5829.78 16262.2 5831.46 16265.3 5832.88 16268.6 5837.52 16277.1 5840.55 16286.3 5839.61 16296.1 5838.96 16302.7 5836.83 16309 5834.44 16315.1 5833.84 16316.6 5833.23 16318.3 5832.61 16320 5836.8 16316.3 5842.11 16313.8 5847.78 16313.2 5847.21 16310.6 5846.94 16307.9 5846.91 16305.3 5846.82 16298.9 5848.12 16292.5 5849.57 16286.3 5849.88 16285 5850.48 16283.4 5850.98 16281.7 5850.91 16280.6 5850.78 16279.5 5850.23 16278.5 5848.96 16276.1 5845.95 16274.3 5844.55 16271.6 5841.91 16266.5 5841.34 16260.8 5841.32 16255.1 5838.43 16253.4 5834.96 16252.1 5832.71 16249.9 5827.32 16244.5 5824.57 16237.7 5824.2 16230.5M5883.13 16254.2C5880.3 16253.7 5877.54 16252.9 5874.76 16251.9 5872.5 16251 5871.44 16249.1 5871.86 16246.7 5872.25 16244.6 5872.55 16242.4 5872.8 16240.2 5872.14 16233.2 5870.89 16226.1 5862.41 16225.3 5858.8 16225 5855.04 16225 5851.27 16225.2 5851.41 16226.5 5851.62 16227.8 5851.96 16229.1 5852.76 16232 5854.26 16234.9 5856.62 16237.2 5856.94 16237.5 5856.23 16238.5 5855.82 16238.2 5851.45 16235.4 5848.2 16230.7 5847.05 16225.5 5844.62 16225.7 5842.19 16225.9 5839.8 16226 5839.76 16226.4 5839.71 16226.7 5839.68 16227.1 5840.19 16232.4 5844.07 16236.5 5847.68 16241.9 5850.1 16245.5 5852.85 16249.1 5854.23 16253.3 5855.93 16258.4 5853.71 16263.7 5858.09 16267.8 5860.69 16270.2 5863.11 16271.3 5864.63 16274.8 5864.87 16275.3 5865.05 16275.9 5865.21 16276.4 5866.77 16279.3 5867.76 16282.5 5868.3 16285.8 5869.14 16290.9 5868.48 16296.6 5869.94 16301.5 5871 16305.2 5872.88 16305.7 5874.84 16306.6 5875.8 16306.1 5876.79 16305.8 5877.8 16305.5 5882.53 16304 5887.29 16303.5 5891.88 16304 5883.26 16289.2 5881 16271.2 5883.13 16254.2M6164.36 16254C6164.34 16253.9 6164.33 16253.8 6164.32 16253.7 6162.8 16251.9 6161.57 16249.9 6160.54 16247.8 6160.48 16247.7 6160.41 16247.6 6160.35 16247.5 6157.98 16243.5 6155 16236.1 6156.38 16230.9 6152.25 16231.2 6148.29 16230.5 6143.93 16229.9 6140.48 16229.5 6137.2 16230 6133.8 16230.1 6135.58 16236.1 6140.11 16241.6 6146.48 16244.1 6146.8 16244.2 6146.66 16244.7 6146.3 16244.6 6138.88 16243.1 6131.96 16237.4 6129.17 16229.6 6127.55 16229.3 6125.87 16228.9 6124.38 16229.1 6123.95 16229.3 6123.62 16229.6 6123.44 16230 6121.69 16233.7 6127.45 16239.6 6129.89 16241.5 6134.5 16245.2 6139.8 16247.9 6144.52 16251.5 6147.23 16250 6150.71 16250.7 6154.18 16252.2 6158.44 16254.2 6161.3 16257.9 6163.6 16262 6164.08 16259.3 6164.73 16256.7 6164.36 16254M6183.39 16237.5C6182.38 16237.5 6181.37 16237.5 6180.35 16237.5 6178.73 16237.5 6177.12 16237.5 6175.53 16237.4 6176.26 16241.1 6176.75 16245 6177.03 16248.8 6178.79 16252 6182.29 16254.1 6185.8 16256.2 6183.48 16250.4 6182.71 16243.6 6183.39 16237.5M6247.62 16450C6246.48 16447.3 6244.48 16445.2 6242.08 16443.6 6243.25 16449.6 6241.69 16455.7 6238.28 16460.2 6238.1 16460.4 6237.66 16460.1 6237.79 16459.9 6240.88 16453.8 6239.95 16446.5 6236.68 16441.5 6236.62 16441.4 6236.58 16441.3 6236.54 16441.2 6233.18 16440.4 6229.61 16440.5 6226.54 16441.5 6222.89 16442.7 6220.27 16438.4 6221.83 16435.4 6223.14 16432.8 6224.11 16430 6224.52 16427.2 6224.84 16423.4 6224.43 16419.6 6222.27 16416.8 6222.23 16416.7 6222.2 16416.7 6222.16 16416.6 6222.07 16416.5 6221.96 16416.4 6221.86 16416.3 6221.21 16415.6 6220.46 16415 6219.57 16414.4 6219.55 16414.4 6219.53 16414.4 6219.51 16414.4 6219.09 16414.1 6218.63 16413.9 6218.16 16413.7 6217.96 16413.6 6217.76 16413.5 6217.54 16413.5 6217.25 16413.4 6216.94 16413.3 6216.62 16413.2 6210.38 16411.3 6202.7 16413.1 6196.79 16415.1 6194.84 16415.7 6193.28 16413 6194.78 16411.6 6199.53 16407.2 6207.52 16405.1 6214.67 16405.8 6215.29 16405.3 6216.08 16405.1 6217.07 16405.2 6217.2 16405.2 6217.33 16405.2 6217.46 16405.3 6217.68 16404.3 6218.33 16403.3 6219.23 16402.6 6221.33 16398.3 6222.42 16393.5 6221.96 16388.8 6221.64 16385.5 6220.64 16382.4 6218.92 16379.5 6218.08 16378.2 6216.98 16376.9 6216.3 16375.5 6215.48 16374.5 6214.64 16373.5 6213.75 16372.6 6212.2 16371.1 6210.48 16369.7 6208.55 16368.7 6206.62 16367.7 6204.44 16367 6202.21 16367.2 6201.83 16367.2 6201.73 16366.7 6202.14 16366.6 6204.45 16366.1 6206.91 16366.4 6209.17 16367.2 6211.43 16368 6213.54 16369.2 6215.46 16370.6 6215.58 16370.7 6215.68 16370.8 6215.78 16370.8 6215.92 16370.1 6216.13 16369.4 6216.34 16368.6 6214.35 16366.4 6211.58 16364.3 6208.21 16363.5 6208.05 16363.5 6208.09 16363 6208.26 16363 6211.18 16362.7 6214.39 16363.1 6217.32 16364.4 6217.45 16363.6 6217.55 16362.8 6217.63 16362 6217.62 16362 6217.61 16362 6217.6 16362 6215.51 16358.4 6212.39 16355.3 6208.69 16353.1 6204.98 16350.8 6200.61 16349.4 6196.1 16349.4 6195.71 16349.4 6195.66 16348.9 6196.05 16348.8 6203.46 16347.9 6211.54 16350.2 6217.55 16355.3 6216.89 16349.1 6214.5 16342.9 6210.52 16338.1 6207.34 16334.2 6202.92 16331.6 6203.92 16326 6204.35 16323.5 6205.42 16321.4 6205.94 16319.1 6205.93 16319 6205.92 16319 6205.91 16319 6203.68 16313.2 6199.09 16307.8 6192.8 16305.1 6192.54 16304.9 6192.7 16304.4 6192.98 16304.5 6197.63 16305.6 6202.14 16308 6205.73 16311.5 6205.23 16309.5 6204.38 16307.5 6203.16 16305.8 6201.09 16302.8 6198.16 16300.5 6196.48 16297.5 6194.1 16294.8 6191.1 16292.5 6187.55 16291.1 6187.35 16291.1 6187.48 16290.5 6187.71 16290.6 6190.21 16290.9 6192.77 16291.6 6195.2 16292.7 6195.18 16291.3 6195.43 16289.9 6195.73 16288.6 6191.79 16283.6 6186.45 16279.4 6180.09 16277.2 6179.8 16277.1 6179.92 16276.6 6180.23 16276.7 6185.96 16277.6 6191.73 16279.8 6196.61 16283.5 6196.62 16283.2 6196.63 16283 6196.64 16282.7 6196.46 16281.3 6196.3 16279.8 6196.14 16278.3 6193.73 16275.7 6190.89 16273.2 6187.46 16271.5 6187.3 16271.4 6187.46 16270.9 6187.64 16270.9 6189.94 16271.3 6192.28 16271.9 6194.54 16272.7 6192.69 16269.9 6190.73 16267.3 6187.98 16265.1 6184.53 16262.3 6180.32 16260.7 6176.7 16258.1 6176.33 16257.9 6175.96 16257.6 6175.61 16257.3 6175.55 16257.8 6175.41 16258.2 6175.18 16258.6 6174.68 16259.6 6174.26 16260.7 6173.88 16261.9 6173.88 16262.5 6173.71 16262.9 6173.45 16263.3 6172.05 16268 6170.8 16273.2 6166.3 16274.6 6165.2 16275 6163.94 16274.4 6163.37 16273.4 6160.73 16269 6157.89 16262.3 6153.3 16259.4 6152.73 16259.1 6148.2 16256.9 6147.05 16257.6 6146.77 16257.8 6146.55 16258 6146.35 16258.3 6146.3 16258.9 6146.37 16259.7 6146.51 16260.5 6146.64 16261.4 6146.83 16262.3 6147.04 16263.2 6147.46 16265 6148.03 16266.8 6148.75 16268.6 6150.2 16272.1 6152.23 16275.4 6154.88 16278.2 6155.11 16278.5 6154.75 16278.9 6154.48 16278.7 6151.38 16276.2 6148.61 16273.2 6146.39 16269.8 6146.09 16269.3 6145.83 16268.9 6145.55 16268.4 6146.04 16273.9 6148.18 16279.2 6150.71 16284.1 6152.7 16287.9 6155.54 16289.9 6158.16 16293 6160.84 16296.2 6156.19 16300.8 6153.6 16297.6 6152.18 16295.8 6150.67 16294.7 6149.27 16293.3 6148.52 16294.6 6147.78 16295.9 6147.07 16297.2 6151.29 16300.5 6153.73 16304.9 6155.18 16309.1 6156.64 16313.5 6157.17 16317.8 6157.8 16322 6157.87 16322.4 6156.84 16322.7 6156.68 16322.4 6154.89 16318.5 6152.91 16314.7 6150.46 16311.6 6148.32 16308.9 6145.76 16306.7 6143.18 16305.4 6142.34 16307.7 6141.67 16310.1 6141.32 16312.7 6141.21 16313.4 6141.16 16314.1 6141.1 16314.8 6141.64 16314.9 6142.21 16315.2 6142.76 16315.7 6150.1 16322 6155.29 16330.5 6157.71 16339.5 6160.13 16348.6 6159.86 16358 6157.23 16366.5 6157.01 16367.3 6155.96 16367 6156.08 16366.3 6157.48 16357.7 6156.12 16348.9 6152.69 16341.3 6150.05 16335.5 6146.17 16330.4 6141.55 16326.4 6142.08 16329.4 6142.92 16332.4 6144.11 16335.3 6144.35 16335.9 6144.43 16336.5 6144.39 16337 6146.46 16341.5 6147.28 16346.5 6147.03 16351.2 6147.02 16351.4 6146.48 16351.4 6146.45 16351.2 6145.83 16347.1 6144.18 16343.3 6141.96 16340 6141.53 16340.2 6141.07 16340.3 6140.61 16340.4 6141.23 16342 6141.67 16343.7 6141.95 16345.4 6142.67 16349.9 6142.3 16354.4 6141.73 16358.7 6141.68 16359.1 6141.14 16359.1 6141.14 16358.7 6141.11 16354.3 6140.69 16350 6139.35 16346 6138.2 16342.6 6136.28 16339.4 6133.77 16337.2 6131.67 16338 6129.66 16342 6129.13 16343.5 6128.08 16346.5 6127.68 16349.7 6127.5 16352.9 6127.46 16353.3 6127.38 16353.7 6127.25 16354 6127.35 16354.3 6127.45 16354.5 6127.58 16354.7 6128.21 16355.8 6129.08 16357.1 6129.8 16358.4 6130.55 16359.7 6131.25 16361 6131.89 16362.3 6134.46 16367.7 6136.13 16373.7 6135.28 16379.6 6135.21 16380.1 6134.68 16380.1 6134.69 16379.6 6134.89 16373.8 6132.6 16368.4 6129.55 16363.6 6128.79 16362.4 6127.98 16361.3 6127.13 16360.2 6126.3 16359 6125.42 16358 6124.48 16356.7 6124.27 16356.8 6124.04 16356.9 6123.8 16356.9 6124.05 16358 6124.28 16359.2 6124.44 16360.3 6125.01 16364.4 6124.87 16368.6 6124.23 16372.5 6123.63 16376.4 6122.64 16380.2 6121.6 16383.8 6119.55 16391.1 6117.17 16398.1 6117.2 16405.3 6117.2 16407.2 6117.3 16409 6117.6 16410.7 6117.86 16412.5 6118.29 16414.3 6118.93 16416 6119.53 16417.7 6120.35 16419.3 6121.39 16420.7 6121.88 16421.5 6122.48 16422.2 6123.08 16422.9 6123.73 16423.5 6124.36 16424.1 6125.11 16424.6 6126.12 16425.4 6125.6 16426.4 6124.44 16425.6 6123.59 16425.1 6122.87 16424.5 6122.1 16423.9 6121.41 16423.2 6120.68 16422.5 6120.08 16421.7 6118.8 16420.3 6117.77 16418.6 6116.95 16416.8 6116.1 16415 6115.46 16413.2 6115 16411.3 6114.5 16409.4 6114.21 16407.4 6114.03 16405.5 6113.64 16401.6 6113.91 16397.6 6114.45 16393.8 6114.98 16390 6115.73 16386.3 6116.41 16382.6 6117.78 16375.3 6118.7 16368.1 6117.14 16361.6 6115.75 16355.7 6112.73 16350.1 6108.48 16346.5 6109.27 16349.1 6109.53 16351.8 6109.66 16354.3 6109.8 16357.3 6109.73 16360.2 6109.95 16363.1 6110.14 16365.9 6110.64 16368.7 6111.87 16371.3 6112.08 16371.7 6111.19 16372.3 6110.86 16371.9 6107.11 16367 6106.03 16360.5 6104.39 16355.1 6103.59 16352.4 6102.59 16349.9 6101.25 16348 6099.92 16346 6098.17 16344.5 6096.55 16344 6096.46 16343.9 6096.39 16343.9 6096.33 16343.8 6093.73 16345.7 6091.69 16348.5 6089.93 16351.5 6091.2 16355.1 6092.03 16358.7 6092.39 16362.5 6092.54 16362.5 6092.69 16362.5 6092.83 16362.5 6094.46 16362.9 6095.89 16363.5 6097.13 16364.4 6098.35 16365.3 6099.38 16366.3 6100.21 16367.5 6101.07 16368.6 6101.71 16370 6102.09 16371.3 6102.89 16373.8 6102.98 16376.4 6102.87 16378.8 6102.75 16381.2 6102.44 16383.4 6102.19 16385.6 6101.69 16390 6101.19 16394.5 6100.68 16399 6100.44 16401.2 6100.21 16403.4 6100.26 16405.6 6100.32 16407.8 6100.68 16410 6101.71 16412 6102.16 16412.9 6102.01 16413.6 6101.5 16414.1 6101.03 16414.4 6100.11 16414.4 6099.46 16413.4 6097.96 16411 6097.32 16408.3 6097.01 16405.9 6096.7 16403.4 6096.71 16401 6096.71 16398.8 6096.73 16394.3 6096.76 16389.9 6096.78 16385.4 6096.82 16380.8 6097 16376.5 6095.73 16373.7 6095.41 16372.9 6095.11 16372.4 6094.68 16371.9 6094.25 16371.4 6093.71 16371 6093.18 16370.7 6092.64 16370.4 6092.1 16370.2 6091.68 16370.2 6091.25 16370.1 6090.96 16370.2 6090.69 16370.3L6085.23 16372.7 6084.67 16366.6C6084.07 16360.1 6081.89 16353.7 6078.48 16348.1 6079.32 16352.6 6079.14 16357.1 6078.36 16361.3 6077.5 16366.1 6075.96 16370.6 6074.26 16375 6073.96 16375.8 6072.94 16375.4 6073.14 16374.6 6074.25 16370.1 6075.08 16365.5 6075.2 16361 6075.35 16356.5 6074.7 16352 6073.07 16348.1 6071.48 16344.2 6068.85 16340.8 6065.69 16338.8 6062.54 16336.8 6058.57 16336.2 6055.42 16336.9 6055 16337 6054.62 16337 6054.25 16337 6054.27 16337 6054.28 16337.1 6054.3 16337.1 6055.28 16339.5 6055.84 16341.7 6056.19 16344 6056.86 16348.7 6056.46 16353.3 6055.26 16357.5 6055.16 16357.9 6054.1 16357.7 6054.09 16357.3 6054.05 16353.1 6052.91 16349.1 6051.09 16345.6 6050.19 16343.9 6049.05 16342.2 6047.92 16340.9 6047.26 16340.1 6046.55 16339.5 6045.88 16339.1 6044.55 16338.8 6043.41 16337.9 6042.92 16336.3 6040.91 16329.7 6036.78 16325.4 6031.88 16323.1 6032.82 16325.2 6033.55 16327.4 6034.08 16329.7 6035.51 16335.7 6035.35 16341.9 6033.94 16347.5 6033.82 16348.1 6032.77 16347.9 6032.77 16347.4 6032.95 16341.7 6031.55 16336.2 6029.05 16331.5 6027.82 16329.1 6026.32 16326.9 6024.64 16325 6023.8 16324 6022.89 16323.1 6021.98 16322.3 6021.52 16321.9 6021.04 16321.5 6020.62 16321.3 6015.96 16321.8 6011.44 16323.8 6007.96 16327.3 6008.13 16328 6008.37 16328.7 6008.68 16329.4 6009.33 16330.8 6010.28 16332.1 6011.45 16333.4 6013.75 16336 6016.8 16338.5 6018.95 16341.9 6021.1 16345.2 6022.43 16349 6022.96 16352.7 6023.53 16356.5 6023.3 16360.3 6022.3 16363.9 6022.01 16364.9 6020.84 16364.6 6021.02 16363.6 6021.67 16360.2 6021.52 16356.6 6020.67 16353.2 6019.84 16349.8 6018.3 16346.6 6016.2 16344 6014.18 16341.3 6011.23 16339.2 6008.42 16336.3 6007.05 16335 6005.71 16333.3 6004.76 16331.4 6003.55 16333.4 6002.63 16335.8 6002.07 16338.4 6002.57 16341.4 6002.8 16344.5 6002.84 16347.6 6002.88 16353.6 6002.23 16359.7 6000.21 16365.3 6000.04 16365.8 5999.01 16365.5 5999.07 16365 5999.84 16359.4 5998.96 16353.7 5997.55 16348.3 5996.75 16345.2 5995.73 16342.3 5994.54 16339.5 5994.33 16339.2 5994.14 16338.9 5994.01 16338.5 5991.48 16331.3 5984.69 16327.9 5978.21 16328.3 5981.64 16331.8 5984.64 16335.8 5987 16340.1 5989.58 16345.1 5991.34 16350.4 5992.29 16355.8 5994.17 16366.5 5992.98 16377.4 5989.63 16387.3 5989.34 16388.2 5988.3 16387.9 5988.48 16387 5990.63 16376.9 5990.16 16366.4 5987.11 16357 5985.58 16352.3 5983.39 16347.9 5980.67 16344 5977.85 16340.1 5974.46 16336.7 5970.79 16333.7 5970.03 16333.2 5969.5 16332.5 5969.16 16331.8 5966.95 16333.7 5965.28 16336.4 5964.54 16339.8 5964.48 16340.1 5964.37 16340.3 5964.27 16340.6 5964.28 16340.6 5964.3 16340.6 5964.3 16340.6 5969.27 16348.1 5972.2 16357.1 5971.14 16365.8 5971.07 16366.5 5970 16366.4 5969.96 16365.7 5969.84 16361.5 5968.78 16357.5 5967.01 16353.8 5965.29 16350.2 5962.85 16346.9 5960.12 16343.9 5957.79 16341.5 5955.19 16339.3 5952.45 16337.5 5952.88 16338.1 5953.3 16338.7 5953.68 16339.4 5955.73 16343.1 5956.86 16347.4 5956.1 16351.4 5956.04 16351.8 5955.51 16351.7 5955.51 16351.4 5955.63 16347.4 5953.85 16343.8 5951.48 16340.9 5949.05 16338 5945.96 16335.8 5942.75 16333.6 5942.71 16333.5 5942.68 16333.5 5942.64 16333.5 5942.19 16333.4 5941.75 16333.4 5941.33 16333.5 5940.53 16333.5 5939.96 16333.2 5939.39 16332.7 5939.12 16332.7 5938.84 16332.7 5938.57 16332.7 5941.75 16335.5 5943.94 16339.2 5945.13 16343 5946.69 16347.9 5946.71 16353.1 5946.19 16358 5946.14 16358.4 5945.6 16358.4 5945.6 16358 5945.53 16353.1 5944.7 16348.2 5942.64 16343.9 5940.63 16339.7 5937.28 16336.3 5933.36 16334.6 5933.12 16334.5 5932.92 16334.4 5932.75 16334.2 5930.29 16335.3 5928.05 16336.8 5926.13 16338.8 5927.33 16339.8 5928.29 16341.1 5928.96 16342.5 5930.11 16344.7 5930.55 16347.2 5930.6 16349.4 5930.61 16349.8 5929.39 16349.9 5929.3 16349.7 5928.29 16346.5 5926.12 16344 5923.6 16342.3 5923.43 16342.5 5923.23 16342.7 5923.01 16342.9 5923.08 16345.5 5922.93 16348.1 5922.58 16350.6 5923.1 16350.4 5923.68 16350.5 5924.23 16350.9 5928.41 16354.2 5931.86 16358.8 5933.43 16364 5935 16369.1 5934.66 16374.8 5932.29 16379.3 5931.96 16379.9 5930.87 16379.4 5931.1 16378.8 5932.71 16374.4 5932.14 16369.4 5930.26 16365.3 5928.43 16361.2 5925.36 16357.7 5921.84 16354.7 5920.76 16359.5 5918.96 16364.1 5916.6 16368.3 5915.78 16369.7 5913.64 16368.5 5914.25 16367.1 5918.51 16357.3 5918.82 16345.9 5915.39 16336.1 5913.68 16331.2 5911.04 16326.6 5907.73 16322.6 5906.09 16320.6 5904.27 16318.8 5902.3 16317.1 5900.3 16315.4 5898.3 16314 5896.64 16313.5 5896.57 16313.5 5896.51 16313.5 5896.44 16313.4 5894.62 16312.8 5892.69 16312.4 5890.7 16312.2 5891.2 16312.6 5891.67 16313.1 5892.11 16313.5 5894.41 16315.9 5896.03 16318.8 5896.92 16321.8 5898.71 16327.9 5898.14 16333.9 5897.8 16339.8 5897.75 16340.6 5896.53 16340.6 5896.48 16339.8 5896.23 16333.9 5895.87 16328.1 5893.73 16323 5891.71 16318.1 5887.43 16314 5882.64 16313.2 5882.32 16313.2 5882.05 16313 5881.8 16312.9 5879.21 16313.5 5876.78 16314.6 5874.68 16316 5875.83 16316.2 5876.96 16316.5 5878.05 16317 5879.28 16317.6 5880.43 16318.4 5881.33 16319.3 5883.14 16321.1 5884.23 16323.2 5884.89 16325.3 5885.58 16327.3 5885.89 16329.4 5886 16331.4 5886.19 16335.3 5885.64 16338.9 5885.32 16342.3 5884.96 16345.8 5884.91 16348.9 5885.55 16352.2 5886.14 16355.5 5887.19 16358.9 5888.01 16362.4 5888.86 16365.8 5889.39 16369.5 5889 16373.1 5888.64 16376.6 5887.38 16380.2 5884.83 16382.7 5883.27 16384 5881.95 16381.9 5882.93 16380.9 5884.64 16378.9 5885.39 16376 5885.39 16372.9 5885.39 16369.9 5884.66 16367 5883.52 16363.8 5882.42 16360.6 5881 16357.3 5879.94 16353.7 5879.41 16351.8 5878.96 16349.9 5878.76 16347.9 5878.53 16345.9 5878.48 16344 5878.48 16342.1 5878.51 16338.5 5878.69 16335.1 5878.3 16332.2 5878.19 16331.1 5877.96 16330.1 5877.68 16329.2 5876.58 16327.1 5874.96 16325.5 5871.69 16327.1 5869.26 16328.3 5868.03 16332.2 5867.36 16334.5 5865.98 16339.3 5866.88 16343.7 5866.54 16348.5 5866.5 16349.1 5865.83 16349.3 5865.52 16348.8 5863.63 16346.1 5862.96 16342.2 5863.23 16338.3 5862.79 16338.4 5862.3 16338.5 5861.84 16338.5 5861 16339.7 5860.25 16341 5859.69 16342.6 5858.44 16345.9 5858.11 16349.4 5858.07 16353 5858.05 16353.8 5856.86 16354 5856.64 16353.2 5855.42 16348.6 5855.98 16343.1 5858.11 16338.4 5854.98 16334.1 5849.35 16332.7 5844.69 16335.6 5844.58 16335.6 5844.48 16335.7 5844.37 16335.8 5841.83 16339 5839.88 16342.9 5838.79 16347 5836.69 16354.9 5837.26 16363.7 5839.48 16372 5839.67 16372.7 5838.66 16373.1 5838.36 16372.4 5834.98 16364.3 5832.68 16355.4 5833.53 16346.1 5833.8 16343.1 5834.46 16340.1 5835.51 16337.2 5832.96 16341 5830.94 16345.2 5829.52 16349.9 5827.8 16355.4 5826.83 16361.4 5826.04 16367.4 5825.96 16368 5824.89 16367.9 5824.86 16367.4 5824.5 16362.2 5824.05 16357 5824.17 16351.6 5823.3 16346.3 5821 16341.5 5815.39 16339.4 5809.93 16337.4 5806.13 16340.4 5803.78 16344.6 5803.64 16345.1 5803.51 16345.7 5803.39 16346.2 5802.88 16349.5 5803.12 16353.2 5803.92 16356.8 5804.17 16357.5 5804.42 16358.2 5804.64 16358.8 5804.8 16359.3 5804.87 16359.7 5804.88 16360.1 5806.1 16363.3 5808.19 16366.7 5809.07 16370.6 5810.18 16375.2 5809.82 16379.9 5809.08 16384.2 5808.86 16385.5 5806.43 16385.2 5806.46 16384 5806.59 16379.7 5806.14 16375.6 5804.64 16372.1 5804.26 16371.3 5803.83 16370.4 5803.35 16369.6 5802.83 16368.8 5802.26 16367.9 5801.64 16367 5801.02 16366.1 5800.37 16365.1 5799.71 16364.1 5799.67 16364 5799.61 16363.9 5799.55 16363.8 5796.54 16363.3 5793.33 16362.7 5790.09 16362.3 5790.29 16362.5 5790.51 16362.7 5790.7 16362.9 5794.76 16366.5 5797.41 16371.6 5797.54 16376.7 5797.55 16377.2 5796.48 16377.3 5796.37 16376.9 5795.08 16372.4 5791.5 16369 5787.66 16367.2 5784.5 16365.7 5781.07 16365.2 5777.91 16365.5 5780.23 16367.8 5781.77 16370.6 5782.53 16373.6 5783.58 16377.6 5783.48 16381.6 5783.34 16385.5 5787.87 16385.9 5791.68 16389.4 5792.67 16393.5 5792.8 16394.1 5792.27 16394.2 5792.1 16393.7 5790.71 16389.6 5786.29 16386.9 5782.36 16387.4L5781.36 16387.5 5781.28 16386.4C5781 16382.3 5780.66 16378.2 5779.29 16374.6 5778.61 16372.8 5777.66 16371.3 5776.45 16369.9 5775.23 16368.6 5773.78 16367.6 5772.26 16367 5771.64 16366.8 5771.19 16366.5 5770.84 16366.2 5764.21 16371.2 5761.34 16379.5 5763.01 16387.6 5763.98 16387.5 5764.7 16387.7 5764.77 16388.2 5764.78 16388.2 5764.78 16388.3 5764.79 16388.3 5765.05 16388.4 5765.33 16388.5 5765.59 16388.6 5766.95 16389.1 5768.21 16389.7 5769.39 16390.4 5771.73 16391.9 5773.71 16393.7 5775.46 16395.6 5778.68 16399.1 5781.14 16403.2 5782.78 16407.6 5788.58 16405.9 5795 16407.6 5798.93 16411.9 5801.05 16414.1 5802.45 16416.9 5803.39 16419.8 5804.33 16422.6 5804.88 16425.6 5805.34 16428.5 5805.69 16430.7 5803.88 16431 5803.41 16428.9 5802.79 16426 5802.07 16423.2 5801.04 16420.7 5800 16418.1 5798.6 16415.8 5796.76 16414.1 5793.18 16410.7 5787.32 16410 5783.07 16412.1L5780.37 16413.4 5779.18 16410.5C5777.48 16406.3 5774.92 16402.5 5771.7 16399.4 5770.09 16397.8 5768.35 16396.4 5766.54 16395.4 5766.18 16395.2 5765.8 16395 5765.45 16394.9 5765.71 16398.4 5765.89 16401.9 5766.27 16405.4 5766.29 16405.7 5765.28 16406 5765.14 16405.8 5763.08 16402.3 5760.76 16398.9 5758.62 16395.4 5757.98 16395.8 5757.37 16396.2 5756.8 16396.7 5756 16397.4 5755.29 16398.2 5754.55 16398.9 5753.89 16399.8 5753.19 16400.6 5752.61 16401.5 5750.17 16405.2 5748.42 16409.5 5747.14 16414 5746.95 16414.7 5746.71 16415.3 5746.44 16415.8 5749.08 16416.2 5751.57 16417.2 5753.64 16418.8 5755.14 16419.9 5756.41 16421.6 5757.19 16423.2 5757.27 16423.3 5757.34 16423.5 5757.39 16423.6 5757.41 16423.6 5757.45 16423.6 5757.43 16423.7 5757.44 16423.7 5757.45 16423.7 5757.46 16423.7 5757.67 16423.7 5758 16423.5 5758.46 16423.4 5758.91 16423.3 5759.35 16423.1 5759.79 16423 5763.42 16422.2 5767.13 16423 5770.18 16424.6 5773.23 16426.3 5775.73 16429 5776.84 16432.3 5777.05 16432.8 5776.54 16433 5776.29 16432.5 5773.6 16426.5 5766.11 16423.7 5760.5 16425.6L5759.48 16426C5759.16 16426.1 5758.75 16426.4 5758.13 16426.5 5757.55 16426.7 5756.5 16426.7 5755.76 16426.2 5755.03 16425.8 5754.7 16425.2 5754.43 16424.8 5753.6 16423.5 5752.67 16422.6 5751.46 16421.8 5749.09 16420.3 5746.1 16419.8 5743.5 16420.3 5742.64 16420.6 5741.94 16420.5 5741.33 16420.3 5740.05 16420.7 5738.91 16420.6 5737.46 16421.8 5734.91 16424 5734.36 16427.8 5736.18 16430.6 5737.64 16432.8 5735.7 16435.8 5733.17 16435.8 5718.25 16435.5 5708.37 16449 5714.46 16461.8 5717.21 16461.2 5719.93 16461 5722.55 16461.1 5726.13 16461.2 5729.59 16461.8 5732.93 16462.9 5739.63 16465 5745.18 16469.1 5749.77 16473.7 5750.18 16474.1 5749.48 16474.9 5749.02 16474.6 5743.76 16471 5737.75 16468.6 5731.82 16468.1 5728.87 16467.8 5725.85 16468 5722.98 16468.5 5720.14 16469 5717.42 16469.8 5715.26 16471.1 5715.05 16471.2 5714.86 16471.2 5714.66 16471.3 5709.84 16474.6 5709.83 16480.1 5712.19 16485.2 5712.55 16486 5713.32 16487.2 5713.82 16488.4 5720.83 16487.3 5728.18 16490 5732.03 16495.3 5732.38 16495.8 5731.53 16496.5 5731.13 16496.1 5728.89 16494 5725.98 16492.8 5723.09 16492.4 5720.16 16492 5717.29 16492.5 5714.7 16493.6 5712.1 16494.7 5709.77 16496.3 5707.8 16498.3 5706.21 16499.8 5704.79 16501.6 5703.94 16503.3 5707.25 16503.4 5710.6 16504 5713.71 16505.5 5716.25 16506.6 5718.46 16508.3 5720.2 16510.4 5721.94 16512.4 5723.14 16514.9 5723.48 16517.4 5723.55 16517.9 5722.5 16518.1 5722.34 16517.7 5721.46 16515.6 5719.89 16513.9 5718.05 16512.7 5716.23 16511.5 5714.16 16510.8 5712.12 16510.5 5708.09 16510.1 5704.05 16511 5700.05 16512.5 5699.93 16517.8 5702.48 16522.7 5706.38 16526.2 5708.89 16524.4 5711.82 16523.2 5714.94 16522.8 5718.8 16522.3 5722.69 16523.1 5726.05 16524.8 5727.73 16525.6 5729.3 16526.8 5730.67 16528.1 5730.73 16528.1 5730.78 16528.2 5730.84 16528.3 5731.04 16528.1 5731.25 16528 5731.5 16527.8 5732.18 16527.4 5732.89 16527 5733.61 16526.6 5735.04 16525.8 5736.53 16525.1 5738.05 16524.5 5744.13 16522 5751.23 16521.3 5757.54 16523.8 5760.64 16525 5763.42 16526.9 5765.62 16529.3 5767.5 16531.3 5768.89 16533.8 5769.62 16536.4 5772.82 16534.9 5776.53 16534.9 5779.61 16536.3 5783.17 16537.9 5785.61 16541.3 5786.14 16545 5786.3 16546.1 5785.63 16546.6 5785.02 16546.6 5784.37 16546.6 5783.76 16546.2 5783.57 16545.5 5782.93 16542.7 5780.77 16540.4 5778.33 16539.6 5775.86 16538.7 5772.8 16539.3 5770.91 16540.9L5766.96 16544.2 5765.5 16538.9C5764.3 16534.6 5760.21 16531 5755.61 16529.7 5751.09 16528.4 5745.84 16529.2 5741.21 16531.5 5740.05 16532 5738.89 16532.7 5737.8 16533.4 5737.25 16533.7 5736.7 16534.1 5736.18 16534.5L5735.3 16535.1C5734.93 16535.4 5734.48 16535.7 5733.89 16536 5733.3 16536.3 5732.55 16536.7 5731.53 16536.9 5730.52 16537.1 5729.18 16537 5728.03 16536.6 5726.89 16536.1 5726.18 16535.5 5725.73 16535.1L5724.91 16534.3C5724.14 16533.6 5723.27 16533 5722.3 16532.6 5720.41 16531.7 5718.2 16531.4 5716.19 16531.6 5714.19 16531.9 5712.18 16532.9 5710.58 16534.3 5710.23 16534.6 5709.87 16534.8 5709.51 16535 5708.64 16536.5 5707.73 16538.2 5706.94 16539.9 5715.89 16538.1 5725.07 16539.8 5732.43 16545.1 5733.94 16544 5735.57 16543.1 5737.23 16542.4 5739.71 16541.3 5742.39 16540.6 5745.11 16540.4 5750.53 16540.1 5756.05 16542.3 5759 16546.5 5759.42 16547.1 5758.39 16547.8 5757.98 16547.3 5756.46 16545.7 5754.43 16544.6 5752.27 16544 5750.1 16543.4 5747.84 16543.4 5745.61 16543.8 5743.38 16544.2 5741.21 16545.1 5739.14 16546.1 5738.02 16546.7 5736.93 16547.4 5735.91 16548.1 5737.52 16549.7 5739.03 16551.5 5740.34 16553.5 5742.03 16553.3 5743.76 16553.6 5745.26 16554.2 5747.28 16555.1 5748.93 16556.4 5750.23 16557.8 5750.44 16558 5749.67 16558.9 5749.46 16558.8 5747.26 16557.7 5744.87 16557.5 5742.63 16557.7 5743.54 16559.7 5744.16 16561.8 5744.42 16564 5747.28 16563.4 5750.3 16563.5 5753.18 16564.3 5754.91 16564.3 5756.63 16564.5 5758.34 16564.8 5761.44 16565.4 5764.33 16566.6 5766.86 16568.5 5767.14 16568.8 5767.42 16569 5767.69 16569.3 5777.55 16573.4 5783.64 16581.8 5786.13 16592 5786.54 16593.7 5783.98 16594.9 5783.25 16593.2 5779.85 16585.4 5772.85 16579.1 5764.73 16576.4 5760.52 16575 5751.39 16575.2 5746.23 16580.4 5744.52 16582.1 5741.42 16582.3 5740.43 16579.9 5736.2 16569.5 5723.67 16560.1 5710.66 16562.2 5703.05 16563.4 5699.03 16569.6 5696.71 16575.9 5696.71 16575.9 5696.14 16577.6 5695.89 16578.5 5695.38 16580.4 5695 16582.3 5694.73 16584.3 5696.12 16584.1 5697.54 16584 5698.96 16584.2 5701 16584.2 5702.62 16584.8 5703.83 16585.1 5707.52 16586.3 5710.89 16588.4 5713.2 16591.4 5713.8 16592.1 5713.29 16593.7 5712.11 16593.3 5707.26 16591.3 5702.44 16588.7 5697.03 16589.3 5687.64 16590.5 5687.07 16599.8 5689.39 16607.2 5692.3 16616.4 5697.63 16624.1 5702.3 16632.3 5707.75 16631.6 5712.3 16634 5714.46 16638.5 5720.3 16635.9 5727.05 16634.5 5732.73 16636.1 5734.6 16636.3 5736.45 16636.6 5738.23 16637.2 5740.95 16638.2 5743.52 16639.7 5745.67 16641.7 5747.77 16643.7 5749.64 16646.2 5750.32 16649.5 5750.39 16650 5750.33 16650.4 5750.18 16650.8 5754.89 16649.4 5759.94 16649.7 5764.21 16651.5 5766.82 16648.9 5769.78 16647.3 5773.14 16645.2 5774.63 16644.2 5776.46 16644.9 5777.37 16646.3 5783.71 16655.7 5797.45 16657 5807.8 16656.3 5816.21 16655.7 5824.45 16653.5 5832.76 16651.9 5826.98 16645.5 5823.05 16637.3 5815.92 16632.1 5807.75 16626.1 5797.51 16627 5788.71 16630.8 5789.07 16633.8 5790.42 16636.4 5792.7 16638.6 5795.95 16639.6 5799.34 16640.2 5802.71 16641.6 5804.03 16642.1 5804.7 16644.1 5803.14 16644.9 5795.64 16648.7 5786.28 16643.7 5780.73 16638.5 5775.73 16633.8 5771.83 16625.2 5772.02 16618 5772.02 16615.1 5772.23 16614.4 5773.79 16613.9 5774.92 16613.7 5776.27 16614.1 5776.44 16615.4 5776.91 16618.8 5776.73 16622.1 5778 16625.4 5778.36 16626.3 5778.78 16627.2 5779.25 16628 5781.26 16622.1 5786.54 16617.5 5791.98 16614.6 5795.35 16612.8 5802.57 16609 5807.69 16609.4 5806.18 16606.7 5803.25 16604.5 5799.91 16603.4L5794.43 16601.8 5798 16598.1C5799.93 16596.2 5801.01 16593 5800.51 16590 5800.04 16586.9 5797.93 16583.9 5794.91 16582.4L5793.33 16581.6 5794.17 16580.4C5795.71 16578.2 5795.05 16574.6 5793 16572.2 5790.89 16569.7 5787.6 16568.3 5784.36 16567.5 5782.73 16567 5783.13 16564.6 5784.91 16564.9 5788.39 16565.5 5792.35 16566.5 5795.67 16569.5 5797.3 16571.1 5798.52 16573 5799.18 16575.3 5799.53 16576.5 5799.68 16577.8 5799.58 16579.1 5802.93 16581.2 5805.51 16584.4 5806.68 16588.3 5807.58 16591.4 5807.53 16594.7 5806.6 16597.7 5807.62 16598.2 5808.62 16598.7 5809.55 16599.3 5812 16601 5814.19 16603.2 5815.7 16606 5817.21 16608.7 5818 16612.2 5817.68 16615.3 5817.55 16616.5 5817.32 16617.8 5816.94 16619 5821.42 16620.1 5826.08 16622.2 5828.44 16625.8 5830.61 16624.6 5832.51 16622.9 5834.08 16620.7 5835.05 16619.4 5836.88 16618.6 5838.44 16619.6 5849.05 16626.2 5860.89 16620.9 5862.57 16608.5 5863.04 16604.9 5868.51 16604.6 5870.01 16607.5 5873.85 16614.8 5880.67 16615.6 5885.98 16612.7 5888.48 16609.7 5889.58 16604.6 5887.23 16600.5 5887.14 16600.3 5887.55 16599.9 5887.71 16600.1 5889.55 16602 5890.71 16604.7 5891.03 16607.5 5891.04 16607.6 5891.05 16607.8 5891.05 16607.9 5892.57 16605.7 5893.53 16602.9 5893.58 16599.8 5893.59 16599.7 5893.6 16599.5 5893.63 16599.4 5893.76 16595 5892.58 16590.4 5889.69 16586.7 5889.53 16586.5 5889.91 16586.1 5890.11 16586.3 5893.23 16588.9 5895.71 16592.6 5896.98 16596.7 5897.67 16596.8 5898.33 16597 5898.86 16597.7 5905.64 16605.6 5914.89 16603.3 5921.73 16597.6 5921.8 16597.4 5921.91 16597.3 5922.05 16597.1 5927.39 16591.6 5931.05 16583.9 5931.14 16575.6 5931.14 16575.2 5931.68 16575.2 5931.73 16575.5 5932.43 16580.5 5931.98 16585.9 5930.35 16590.9 5931.38 16591.1 5932.3 16591.8 5932.75 16593.1 5936.14 16602.6 5947.71 16604.1 5953.79 16596.9 5955.55 16594.4 5956.71 16591.1 5956.46 16587.7 5956.46 16587.5 5956.98 16587.4 5957.05 16587.6 5957.73 16589.4 5958.1 16591.5 5958.09 16593.6 5958.28 16593.7 5958.46 16593.7 5958.66 16593.8 5959.91 16594.2 5961.17 16594.6 5962.45 16595 5966.14 16590.1 5968.29 16583.6 5967.41 16577 5967.37 16576.6 5967.89 16576.5 5967.98 16576.8 5969.89 16582.9 5969.61 16590 5966.68 16596.2 5975.48 16598.5 5984.66 16599.5 5993.13 16597.1 6000.18 16594.3 6006.42 16588.3 6008.82 16580.4 6008.95 16580 6009.46 16580.2 6009.39 16580.6 6008.77 16584.3 6007.3 16588 6005.14 16591.4 6006.46 16591.3 6007.92 16592 6008.45 16593.1 6009.41 16595.1 6010.64 16596.8 6012.05 16598.3 6014.71 16596.4 6017.29 16594.2 6019.27 16591.4 6019.38 16591.3 6019.86 16591.5 6019.8 16591.7 6018.76 16594.8 6017.26 16598.1 6015.11 16600.9 6016.52 16601.9 6018.05 16602.7 6019.66 16603.3 6019.75 16603.2 6019.85 16603.1 6019.96 16603 6025.19 16599.6 6029.42 16593.7 6030.32 16586.8 6030.36 16586.5 6030.89 16586.5 6030.91 16586.8 6031.21 16593.1 6029.1 16599.8 6024.63 16604.8 6030.93 16606 6037.83 16605.4 6043.7 16603.5 6042.83 16602.4 6042.03 16601.3 6041.37 16600.1 6040.66 16598.8 6042.23 16597.8 6043.29 16598.6 6054.36 16607.2 6074 16611.6 6082.07 16597 6082.61 16596 6084.39 16596.4 6084.27 16597.6 6084.16 16598.7 6083.83 16599.8 6083.37 16600.8 6087.41 16601.5 6090.55 16599.3 6092.89 16596.3 6095.19 16593.2 6096.93 16589.5 6097.98 16585.7 6099.27 16581 6099.61 16575.8 6097.66 16571.1 6097.51 16570.7 6097.98 16570.4 6098.19 16570.8 6099.95 16573.9 6100.71 16577.5 6100.84 16581.1 6100.91 16582 6100.93 16583 6100.91 16583.9 6100.94 16585.5 6100.88 16587 6100.66 16588.6 6101.53 16593 6103.64 16596.6 6106.62 16600 6113.46 16605.3 6122.8 16606.7 6131.76 16605.3 6139.48 16604.1 6148.52 16600.4 6153.2 16593.6 6157.33 16585.3 6158.84 16575.3 6156.55 16565.7 6156.46 16565.3 6156.96 16565.1 6157.12 16565.5 6159.61 16572.3 6160.43 16579.9 6159.3 16587.2 6160.07 16587.4 6160.8 16587.9 6161.36 16588.6 6170.48 16600.5 6183.05 16595.2 6191.41 16586.4 6193.73 16582.6 6195.11 16578.2 6194.96 16573.6 6194.95 16573.2 6195.48 16573.1 6195.54 16573.5 6196.45 16578.3 6195.84 16583.6 6193.79 16588.3 6193.52 16589.5 6193.12 16590.6 6192.59 16591.6 6196.69 16591 6200.38 16591.3 6204.3 16588.8 6208.32 16586.3 6210.5 16582.7 6211.95 16578.4 6212.35 16576.6 6212.53 16574.7 6212.46 16572.8 6212.38 16570.8 6214.17 16569.3 6216.05 16569.2 6218.91 16569.2 6221.6 16568.6 6224.07 16567.7 6232.46 16561.3 6238.01 16553 6237.48 16541.4 6237.48 16541 6237.51 16540.7 6237.57 16540.5 6237.51 16540.3 6237.45 16540.1 6237.38 16540 6236.86 16541.7 6236.14 16543.4 6235.23 16545 6233.21 16548.5 6230.41 16551.4 6227.3 16553.6 6226.86 16553.9 6226.1 16553 6226.45 16552.6 6231.37 16547.6 6233.78 16540.7 6233.78 16534.1 6233.75 16534 6233.73 16534 6233.71 16534 6232.08 16532 6232.02 16528.8 6234.55 16527.5 6235.73 16526.8 6236.85 16526.1 6237.89 16525.4 6244.83 16514.7 6246.86 16502.7 6240.5 16491.1 6239.89 16492.4 6239.26 16493.6 6238.55 16494.7 6235.05 16500.3 6230.32 16505 6224.86 16508.2 6224.39 16508.5 6223.77 16507.6 6224.16 16507.3 6228.73 16503.2 6231.89 16497.9 6233.73 16492.4 6235.54 16487 6236.05 16481.3 6235.35 16476 6233.68 16474.3 6234.46 16471.4 6236.79 16470.6 6239 16469.8 6241.09 16468.5 6242.89 16466.9 6244.27 16465.4 6245.54 16463.8 6246.59 16462.2 6248.64 16458.4 6249.33 16454.1 6247.62 16450M5733.51 16560.6H5733.52C5733.55 16560.7 5733.58 16560.7 5733.61 16560.7 5733.57 16560.7 5733.54 16560.6 5733.51 16560.6M6243.79 16483.2C6243.7 16483 6243.6 16482.9 6243.5 16482.8L6243.48 16482.9C6243.59 16483 6243.69 16483.1 6243.79 16483.2" fill="#fff" class="mkkdsak4732"></path>
<path transform="matrix(.1,0,0,-.1,0,1683.78)" d="M5752.73 16629.4C5752.62 16630 5752.39 16630.6 5751.89 16631.1 5751.32 16631.7 5750.73 16631.9 5750.21 16632.1 5749.14 16632.2 5748.77 16632.1 5748.29 16632.1 5747.32 16632 5746.37 16631.9 5745.41 16631.7 5743.52 16631.4 5741.64 16631 5739.84 16630.3 5738.18 16629.7 5736.57 16628.9 5735.02 16628.1 5733.16 16627.2 5731.46 16626.1 5729.96 16624.8 5729.87 16624.7 5729.89 16624.5 5729.88 16624.4 5729.87 16624.3 5729.79 16624.2 5729.82 16624.2 5729.93 16623.9 5730.25 16623.7 5730.52 16623.8 5731.68 16624.3 5732.84 16624.7 5734 16625.1 5736.23 16625.8 5738.45 16626.3 5740.57 16626.2 5742.3 16626.1 5744.05 16626 5745.89 16625.9L5748.71 16625.8C5749.14 16625.8 5749.71 16625.6 5750.91 16626.1 5752.2 16626.5 5753.02 16628.2 5752.73 16629.4" fill="#fff" class="mkkdsak4732"></path>
<path transform="matrix(.1,0,0,-.1,0,1683.78)" d="M5699.59 16627.1C5698.57 16627.6 5697.52 16628 5696.31 16628.2 5695.64 16628.3 5694.98 16628.4 5694.24 16628.3 5693.53 16628.1 5692.52 16628 5691.58 16626.7 5691.17 16626.1 5691.04 16625.1 5691.29 16624.4 5691.51 16623.7 5691.88 16623.3 5692.23 16623 5692.87 16622.4 5693.84 16621.9 5694.35 16622 5695.51 16621.9 5696.85 16621.7 5697.77 16621.8 5699.53 16621.9 5701.15 16622 5702.88 16621.7 5702.99 16621.7 5703.11 16621.6 5703.22 16621.5H5703.25C5703.43 16621.4 5703.68 16621.3 5703.9 16621.4 5704.25 16621.6 5704.41 16621.9 5704.27 16622.3 5703.4 16624.4 5701.6 16626 5699.59 16627.1M5694.89 16625.6C5694.88 16625.7 5694.86 16625.7 5694.84 16625.7 5694.82 16625.8 5694.85 16625.7 5694.89 16625.6" fill="#fff" class="mkkdsak4732"></path>
<path transform="matrix(.1,0,0,-.1,0,1683.78)" d="M5733.79 16588.5C5733.2 16588.9 5732.65 16588.7 5732.16 16588H5732.15C5728.66 16583 5724.31 16578.7 5718.1 16577.6 5711.45 16576.4 5705.13 16579.8 5703.94 16586.8 5703.65 16588.5 5701.04 16587.8 5701.32 16586 5701.36 16585.8 5701.45 16585.6 5701.5 16585.4 5701.5 16585.3 5701.47 16585.3 5701.47 16585.3 5701.69 16580 5700.49 16573.4 5693.65 16574.2 5691.91 16574.4 5691.93 16571.7 5693.65 16571.5 5693.92 16571.5 5694.19 16571.5 5694.46 16571.5 5694.56 16571.4 5694.58 16571.2 5694.75 16571.1 5697.29 16569.5 5700.54 16570 5702.33 16572.4 5703.42 16573.9 5703.99 16575.7 5704.26 16577.5 5707.22 16573.7 5712.47 16571.7 5717.09 16572.2 5724.98 16573.3 5729.88 16580.7 5733.92 16586.9 5734.42 16587.6 5734.38 16588.2 5733.79 16588.5" fill="#fff" class="mkkdsak4732"></path>






<g clip-path="url(#clip_2)">



</g>
<g clip-path="url(#clip_3)">













</g>


</svg>