<svg xmlns="http://www.w3.org/2000/svg" xmlns:xlink="http://www.w3.org/1999/xlink" xmlns:inkscape="http://www.inkscape.org/namespaces/inkscape" version="1.1" width="432.7514" height="67.2753" viewBox="378.9423 67.2753 432.7514 67.2753">
<defs>
<clipPath id="clip_0">

</clipPath>
<clipPath id="clip_1">

</clipPath>
<clipPath id="clip_2">

</clipPath>
<clipPath id="clip_3">

</clipPath>
</defs>






































<g clip-path="url(#clip_0)">

</g>



<g clip-path="url(#clip_1)">

</g>













































<path transform="matrix(.1,0,0,-.1,0,1683.78)" d="M4049.15 15627.5C4022.21 15627.5 3949.35 15628.7 3923.02 15628.7 3895.46 15628.7 3829.2 15627.5 3802.26 15627.5V15633.6H3873.42V16045.1H3808.52V16051.2C3835.46 16051.2 3896.69 16050 3923.63 16050 3949.96 16050 4024.05 16051.2 4050.37 16051.2H4079.77C4208.96 16051.2 4335.7 16025.5 4335.7 15937.3 4335.7 15832.6 4208.96 15817.9 4079.77 15817.9H3984.25V15633.6H4049.15ZM4063.23 15824C4174.06 15824 4218.14 15862 4218.14 15937.3 4218.14 16012 4175.89 16045.1 4063.85 16045.1H3984.25V15824" fill="#fff" class="mkkdsak4732"></path>
<path transform="matrix(.1,0,0,-.1,0,1683.78)" d="M4845.08 15590.8C4848.76 15626.3 4759.97 15627.5 4674.86 15627.5H4575.06C4548.12 15627.5 4520.56 15628.7 4494.24 15628.7 4467.3 15628.7 4400.56 15628.1 4373.61 15627.5V15633.6H4438.52V16045.1H4373.61V16051.2C4399.94 16051.2 4467.3 16050 4494.24 16050 4520.56 16050 4547.51 16051.2 4574.45 16051.2H4652.21C4737.32 16051.2 4826.71 16051.8 4823.65 16087.9H4829.77L4844.47 15930.6H4838.35C4829.16 16014.5 4784.46 16045.1 4658.33 16045.1H4549.34V15851H4625.27C4698.74 15851 4744.66 15868.1 4744.66 15936.1H4750.17V15759.7H4744.66C4744.66 15827.7 4698.74 15844.9 4625.27 15844.9H4549.34V15633.6H4688.95C4799.16 15633.6 4844.47 15665.5 4850.59 15747.5H4857.33L4851.2 15590.8" fill="#fff" class="mkkdsak4732"></path>
<path transform="matrix(.1,0,0,-.1,0,1683.78)" d="M5412.19 15688.7C5361.98 15648.3 5282.99 15621.4 5221.77 15621.4 5074.81 15621.4 4911.94 15689.3 4911.94 15839.4 4911.94 15988.1 5057.67 16056.7 5221.15 16056.7 5262.18 16056.7 5347.9 16039.6 5381.57 15997.3 5389.53 15986.3 5395.04 15974.1 5395.04 15960 5395.04 15928.7 5368.71 15903 5336.26 15903 5305.65 15903 5279.32 15928.7 5279.32 15960 5279.32 15996.1 5313 16019.4 5349.13 16017.5 5317.9 16037.1 5260.95 16051.2 5221.15 16051.2 5090.73 16051.2 5035.02 15958.1 5035.02 15839.4 5035.02 15698.5 5123.8 15628.1 5226.05 15628.1 5292.18 15628.1 5360.14 15653.2 5408.52 15691.8" fill="#fff" class="mkkdsak4732"></path>
<path transform="matrix(.1,0,0,-.1,0,1683.78)" d="M5745.84 15621.4C5558.48 15621.4 5456.23 15715.7 5456.23 15841.2 5456.23 15964.9 5556.03 16056.7 5745.84 16056.7 5935.65 16056.7 6035.46 15964.9 6035.46 15841.2 6035.46 15715.7 5933.82 15621.4 5745.84 15621.4M5913 15835.7C5913 15956.3 5857.28 16051.2 5745.84 16051.2 5634.4 16051.2 5578.69 15968.5 5578.69 15847.3 5578.69 15724.9 5635.63 15627.5 5745.84 15627.5 5856.05 15627.5 5913 15713.2 5913 15835.7" fill="#fff" class="mkkdsak4732"></path>
<path transform="matrix(.1,0,0,-.1,0,1683.78)" d="M6302.19 15817.9H6236.67V15633.6H6301.58V15627.5C6274.64 15627.5 6201.77 15628.7 6175.44 15628.7 6147.89 15628.7 6087.89 15627.5 6060.95 15627.5V15633.6H6125.85V16045.1H6060.95V16051.2C6087.89 16051.2 6149.12 16050 6176.06 16050 6202.39 16050 6276.47 16051.2 6302.8 16051.2H6392.81C6491.39 16051.2 6588.13 16025.5 6588.13 15937.3 6588.13 15839.4 6507.92 15818.5 6420.98 15817.9L6443.02 15779.3C6469.96 15731.6 6528.13 15635.5 6588.74 15635.5 6606.5 15635.5 6624.86 15643.4 6643.23 15661.8L6647.52 15658.7C6624.26 15631.8 6580.17 15621.4 6544.04 15621.4 6438.12 15621.4 6398.93 15641.6 6343.82 15742.6ZM6338.93 15824C6424.65 15824 6470.57 15862 6470.57 15937.3 6470.57 16012 6426.48 16045.1 6339.54 16045.1H6236.67V15824" fill="#fff" class="mkkdsak4732"></path>
<path transform="matrix(.1,0,0,-.1,0,1683.78)" d="M6914.04 15627.5C6887.1 15627.5 6817.3 15628.7 6790.97 15628.7 6763.42 15628.7 6700.35 15627.5 6673.41 15627.5V15633.6H6738.31V16045.1H6673.41V16051.2C6700.35 16051.2 6763.42 16050 6790.97 16050 6817.3 16050 6887.1 16051.2 6914.04 16051.2V16045.1H6849.13V15633.6H6914.04" fill="#fff" class="mkkdsak4732"></path>
<path transform="matrix(.1,0,0,-.1,0,1683.78)" d="M7022.83 15928.1V15633.6H7087.12V15627.5C7064.46 15627.5 7041.81 15628.7 7019.76 15628.7 6997.11 15628.7 6974.45 15627.5 6952.42 15627.5V15633.6H7016.71V16051.2L7430 15738.3V16045.1H7365.71V16051.2H7500.41V16045.1H7436.12V15621.4" fill="#fff" class="mkkdsak4732"></path>
<path transform="matrix(.1,0,0,-.1,0,1683.78)" d="M7813.64 15621.4C7626.28 15621.4 7524.02 15715.7 7524.02 15841.2 7524.02 15964.9 7623.83 16056.7 7813.64 16056.7 8003.45 16056.7 8103.25 15964.9 8103.25 15841.2 8103.25 15715.7 8001.61 15621.4 7813.64 15621.4M7980.8 15835.7C7980.8 15956.3 7925.08 16051.2 7813.64 16051.2 7702.2 16051.2 7646.48 15968.5 7646.48 15847.3 7646.48 15724.9 7703.42 15627.5 7813.64 15627.5 7923.85 15627.5 7980.8 15713.2 7980.8 15835.7" fill="#fff" class="mkkdsak4732"></path>







<g clip-path="url(#clip_2)">



</g>
<g clip-path="url(#clip_3)">













</g>


</svg>